SplineFontDB: 3.2
FontName: Mukdum-Final-Unicode
FullName: Mukdum Final Unicode
FamilyName: MukdumFinal
Weight: Regular
Copyright: 
UComments: "Derived from Mukdum-Final on 1-Apr-2022."
Version: 1.000
ItalicAngle: 0
UnderlinePosition: -125
UnderlineWidth: 50
Ascent: 750
Descent: 250
InvalidEm: 0
sfntRevision: 0x00010000
LayerCount: 2
Layer: 0 1 "Back" 1
Layer: 1 1 "Fore" 0
XUID: [1021 341 221541093 10624490]
StyleMap: 0x0040
FSType: 4
OS2Version: 4
OS2_WeightWidthSlopeOnly: 0
OS2_UseTypoMetrics: 1
CreationTime: 1602149481
ModificationTime: 1648870742
PfmFamily: 81
TTFWeight: 400
TTFWidth: 5
LineGap: 100
VLineGap: 0
Panose: 0 0 0 0 0 0 0 0 0 0
OS2TypoAscent: 750
OS2TypoAOffset: 0
OS2TypoDescent: -250
OS2TypoDOffset: 0
OS2TypoLinegap: 100
OS2WinAscent: 750
OS2WinAOffset: 0
OS2WinDescent: 250
OS2WinDOffset: 0
HheadAscent: 750
HheadAOffset: 0
HheadDescent: -250
HheadDOffset: 0
OS2SubXSize: 650
OS2SubYSize: 600
OS2SubXOff: 0
OS2SubYOff: 75
OS2SupXSize: 650
OS2SupYSize: 600
OS2SupXOff: 0
OS2SupYOff: 350
OS2StrikeYSize: 50
OS2StrikeYPos: 300
OS2CapHeight: 700
OS2XHeight: 500
OS2Vendor: 'MOJI'
OS2CodePages: 00000001.00000000
OS2UnicodeRanges: 80000003.00000000.00000000.00000000
MarkAttachClasses: 1
DEI: 91125
TtTable: prep
PUSHW_1
 0
CALL
SVTCA[y-axis]
PUSHW_3
 1
 3
 2
CALL
SVTCA[x-axis]
PUSHW_3
 4
 3
 2
CALL
SVTCA[x-axis]
PUSHW_8
 4
 84
 69
 54
 44
 22
 0
 8
CALL
PUSHW_8
 5
 91
 69
 54
 44
 22
 0
 8
CALL
PUSHW_8
 6
 77
 69
 54
 32
 22
 0
 8
CALL
SVTCA[y-axis]
PUSHW_8
 1
 102
 87
 68
 44
 29
 0
 8
CALL
PUSHW_8
 2
 110
 87
 68
 44
 29
 0
 8
CALL
PUSHW_8
 3
 62
 50
 39
 32
 22
 0
 8
CALL
SVTCA[y-axis]
PUSHW_3
 7
 3
 7
CALL
PUSHW_1
 0
DUP
RCVT
RDTG
ROUND[Black]
RTG
WCVTP
EndTTInstrs
TtTable: fpgm
PUSHW_1
 0
FDEF
MPPEM
PUSHW_1
 9
LT
IF
PUSHB_2
 1
 1
INSTCTRL
EIF
PUSHW_1
 511
SCANCTRL
PUSHW_1
 68
SCVTCI
PUSHW_2
 9
 3
SDS
SDB
ENDF
PUSHW_1
 1
FDEF
DUP
DUP
RCVT
ROUND[Black]
WCVTP
PUSHB_1
 1
ADD
ENDF
PUSHW_1
 2
FDEF
PUSHW_1
 1
LOOPCALL
POP
ENDF
PUSHW_1
 3
FDEF
DUP
GC[cur]
PUSHB_1

StartChar: p
Encoding: 2 72649 2
Width: 545
GlyphClass: 2
Flags: W
LayerCount: 2
Fore
SplineSet
5 360 m 2,0,1
 6 384 6 384 24 400 c 128,-1,2
 42 416 42 416 67 426 c 128,-1,3
 92 436 92 436 119.5 440.5 c 128,-1,4
 147 445 147 445 168 445 c 0,5,6
 192 445 192 445 217 440.5 c 128,-1,7
 242 436 242 436 263.5 428 c 128,-1,8
 285 420 285 420 302.5 407.5 c 128,-1,9
 320 395 320 395 330 378 c 1,10,-1
 330 327 l 1,11,12
 351 330 351 330 361 343 c 128,-1,13
 371 356 371 356 374.5 373.5 c 128,-1,14
 378 391 378 391 377.5 412 c 128,-1,15
 377 433 377 433 377 452 c 256,16,17
 377 471 377 471 376.5 484 c 128,-1,18
 376 497 376 497 376 498 c 2,19,-1
 441 500 l 1,20,-1
 444 393 l 2,21,22
 446 347 446 347 428.5 319.5 c 128,-1,23
 411 292 411 292 389 278 c 0,24,25
 363 262 363 262 330 256 c 1,26,27
 330 199 330 199 330 162.5 c 128,-1,28
 330 126 330 126 329 103 c 0,29,30
 329 78 329 78 328 64 c 0,31,32
 325 57 325 57 320 49 c 0,33,34
 315 43 315 43 308.5 36.5 c 128,-1,35
 302 30 302 30 292 25 c 0,36,37
 263 11 263 11 223.5 3 c 128,-1,38
 184 -5 184 -5 143 -5 c 0,39,40
 98 -5 98 -5 59 5.5 c 128,-1,41
 20 16 20 16 0 40 c 1,42,-1
 0 98 l 1,43,44
 21 79 21 79 41.5 69 c 128,-1,45
 62 59 62 59 81.5 54.5 c 128,-1,46
 101 50 101 50 118 49.5 c 128,-1,47
 135 49 135 49 148 49 c 0,48,49
 159 49 159 49 174.5 50.5 c 128,-1,50
 190 52 190 52 205 55.5 c 128,-1,51
 220 59 220 59 231.5 64.5 c 128,-1,52
 243 70 243 70 246 78 c 0,53,54
 246 79 246 79 248 82 c 128,-1,55
 250 85 250 85 251 89 c 0,56,57
 252 95 252 95 252 117 c 128,-1,58
 252 139 252 139 252 165.5 c 128,-1,59
 252 192 252 192 251.5 217.5 c 128,-1,60
 251 243 251 243 250 256 c 1,61,62
 240 256 240 256 218 256 c 128,-1,63
 196 256 196 256 170.5 256.5 c 128,-1,64
 145 257 145 257 119 258.5 c 128,-1,65
 93 260 93 260 75 263 c 0,66,67
 60 265 60 265 46.5 270 c 128,-1,68
 33 275 33 275 23.5 284 c 128,-1,69
 14 293 14 293 8.5 308.5 c 128,-1,70
 3 324 3 324 4 347 c 2,71,-1
 5 360 l 2,0,1
145 303 m 0,72,73
 199 303 199 303 226 306.5 c 128,-1,74
 253 310 253 310 253 327 c 0,75,76
 253 362 253 362 231 377.5 c 128,-1,77
 209 393 209 393 167 393 c 0,78,79
 160 393 160 393 153.5 392.5 c 128,-1,80
 147 392 147 392 139 391 c 0,81,82
 105 379 105 379 92 367.5 c 128,-1,83
 79 356 79 356 79 345 c 256,84,85
 79 334 79 334 88 326 c 128,-1,86
 97 318 97 318 108.5 313 c 128,-1,87
 120 308 120 308 131 305.5 c 128,-1,88
 142 303 142 303 145 303 c 0,72,73
EndSplineSet
Validated: 33
EndChar

StartChar: a
Encoding: 3 72648 3
Width: 407
GlyphClass: 2
Flags: W
AnchorPoint: "Tilde" 176 546 basechar 0
LayerCount: 2
Fore
SplineSet
305 500 m 1,0,-1
 307 171 l 1,1,-1
 307 80 l 2,2,3
 306 61 306 61 306 46 c 1,4,5
 295 31 295 31 279 21.5 c 128,-1,6
 263 12 263 12 237.5 7.5 c 128,-1,7
 212 3 212 3 175.5 1.5 c 128,-1,8
 139 0 139 0 86 0 c 1,9,10
 102 11 102 11 123.5 15.5 c 128,-1,11
 145 20 145 20 165.5 25.5 c 128,-1,12
 186 31 186 31 202.5 40.5 c 128,-1,13
 219 50 219 50 225 70 c 1,14,-1
 225 199 l 1,15,16
 206 197 206 197 179 201.5 c 128,-1,17
 152 206 152 206 123.5 216 c 128,-1,18
 95 226 95 226 68.5 240.5 c 128,-1,19
 42 255 42 255 24.5 273.5 c 128,-1,20
 7 292 7 292 2 313 c 128,-1,21
 -3 334 -3 334 10 356 c 0,22,23
 33 395 33 395 69 414 c 128,-1,24
 105 433 105 433 145.5 444.5 c 128,-1,25
 186 456 186 456 228 466.5 c 128,-1,26
 270 477 270 477 305 500 c 1,0,-1
225 228 m 1,27,-1
 225 393 l 1,28,29
 214 386 214 386 193 380 c 128,-1,30
 172 374 172 374 151.5 365.5 c 128,-1,31
 131 357 131 357 115.5 345 c 128,-1,32
 100 333 100 333 100 313 c 0,33,34
 100 278 100 278 119.5 261 c 128,-1,35
 139 244 139 244 163 236 c 0,36,37
 190 227 190 227 225 228 c 1,27,-1
EndSplineSet
Validated: 33
EndChar

StartChar: b
Encoding: 4 72654 4
Width: 430
GlyphClass: 2
Flags: W
LayerCount: 2
Fore
SplineSet
240 484 m 1,0,-1
 239 359 l 1,1,-1
 329 391 l 1,2,-1
 329 345 l 1,3,-1
 240 314 l 1,4,-1
 240 43 l 1,5,6
 230 36 230 36 206.5 28 c 128,-1,7
 183 20 183 20 155.5 14 c 128,-1,8
 128 8 128 8 99 4 c 128,-1,9
 70 0 70 0 47 0 c 0,10,11
 23 0 23 0 13.5 8.5 c 128,-1,12
 4 17 4 17 1 30 c 128,-1,13
 -2 43 -2 43 -0.5 57.5 c 128,-1,14
 1 72 1 72 -1 84 c 1,15,16
 10 77 10 77 26 64 c 128,-1,17
 42 51 42 51 57 51 c 0,18,19
 95 51 95 51 124.5 62 c 128,-1,20
 154 73 154 73 168 83 c 1,21,-1
 168 288 l 1,22,-1
 60 241 l 1,23,-1
 60 292 l 1,24,-1
 168 333 l 1,25,-1
 168 492 l 1,26,-1
 240 484 l 1,0,-1
EndSplineSet
Validated: 1
EndChar

StartChar: c
Encoding: 5 72652 5
Width: 490
GlyphClass: 2
Flags: W
LayerCount: 2
Fore
SplineSet
360 -1 m 1,0,-1
 310 -1 l 1,1,-1
 0 321 l 1,2,3
 69 351 69 351 119 381 c 128,-1,4
 169 411 169 411 201.5 436 c 128,-1,5
 234 461 234 461 251 478 c 128,-1,6
 268 495 268 495 272 499 c 2,7,-1
 390 500 l 1,8,9
 386 497 386 497 360.5 476.5 c 128,-1,10
 335 456 335 456 297.5 427.5 c 128,-1,11
 260 399 260 399 213.5 368 c 128,-1,12
 167 337 167 337 120 314 c 1,13,-1
 360 -1 l 1,0,-1
EndSplineSet
Validated: 1
EndChar

StartChar: d
Encoding: 6 72640 6
Width: 490
GlyphClass: 2
Flags: W
LayerCount: 2
Fore
SplineSet
389 498 m 1,0,1
 382 432 382 432 379.5 371 c 128,-1,2
 377 310 377 310 377.5 249 c 128,-1,3
 378 188 378 188 381.5 127 c 128,-1,4
 385 66 385 66 390 0 c 1,5,6
 362 6 362 6 339 12.5 c 128,-1,7
 316 19 316 19 295.5 24 c 128,-1,8
 275 29 275 29 254.5 32 c 128,-1,9
 234 35 234 35 210 35 c 0,10,11
 175 35 175 35 125.5 27.5 c 128,-1,12
 76 20 76 20 0 0 c 1,13,-1
 0 57 l 1,14,-1
 120 78 l 1,15,-1
 121 428 l 1,16,-1
 98 428 l 1,17,-1
 56 430 l 2,18,19
 44 431 44 431 33.5 439.5 c 128,-1,20
 23 448 23 448 15.5 458.5 c 128,-1,21
 8 469 8 469 3.5 478.5 c 128,-1,22
 -1 488 -1 488 -1 491 c 2,23,-1
 -1 497 l 2,24,25
 -1 499 -1 499 -1 499 c 1,26,27
 54 491 54 491 104 485.5 c 128,-1,28
 154 480 154 480 194 480 c 0,29,30
 236 480 236 480 279 481 c 128,-1,31
 322 482 322 482 364 494 c 2,32,-1
 385 500 l 2,33,34
 388 502 388 502 388 499 c 1,35,36
 389 499 389 499 389 498 c 1,37,-1
 389 498 l 1,0,1
180 86 m 1,38,39
 200 88 200 88 213.5 88.5 c 128,-1,40
 227 89 227 89 238 89 c 0,41,42
 248 89 248 89 256 88.5 c 128,-1,43
 264 88 264 88 273 86.5 c 128,-1,44
 282 85 282 85 293.5 83 c 128,-1,45
 305 81 305 81 320 78 c 1,46,47
 314 108 314 108 310 158.5 c 128,-1,48
 306 209 306 209 305 261.5 c 128,-1,49
 304 314 304 314 304.5 360.5 c 128,-1,50
 305 407 305 407 308 430 c 1,51,-1
 178 430 l 1,52,-1
 180 86 l 1,38,39
EndSplineSet
Validated: 37
EndChar

StartChar: e
Encoding: 7 72642 7
Width: 472
GlyphClass: 2
Flags: W
AnchorPoint: "Tilde" 201 570 basechar 0
LayerCount: 2
Fore
SplineSet
241 502 m 1,0,-1
 241 361 l 1,1,-1
 340 362 l 1,2,-1
 340 315 l 1,3,-1
 241 315 l 1,4,-1
 241 51 l 1,5,-1
 370 50 l 1,6,-1
 371 1 l 1,7,-1
 0 0 l 1,8,-1
 0 51 l 1,9,-1
 172 51 l 1,10,-1
 172 315 l 1,11,-1
 50 314 l 1,12,-1
 51 361 l 1,13,-1
 172 361 l 1,14,-1
 172 502 l 1,15,-1
 241 502 l 1,0,-1
EndSplineSet
Validated: 1
EndChar

StartChar: f
Encoding: 8 72665 8
Width: 490
GlyphClass: 2
Flags: W
LayerCount: 2
Fore
SplineSet
390 521 m 1,0,-1
 390 382 l 1,1,2
 381 365 381 365 372 345 c 0,3,4
 364 328 364 328 353.5 306 c 128,-1,5
 343 284 343 284 332 259 c 1,6,-1
 390 144 l 1,7,-1
 390 5 l 1,8,-1
 311 184 l 1,9,10
 299 134 299 134 288 100.5 c 128,-1,11
 277 67 277 67 262 46.5 c 128,-1,12
 247 26 247 26 225.5 16.5 c 128,-1,13
 204 7 204 7 170 5 c 0,14,15
 140 4 140 4 109 8.5 c 128,-1,16
 78 13 78 13 53.5 31 c 128,-1,17
 29 49 29 49 13.5 84.5 c 128,-1,18
 -2 120 -2 120 -2 180 c 0,19,20
 -2 200 -2 200 -2 233.5 c 128,-1,21
 -2 267 -2 267 0 295 c 0,22,23
 4 347 4 347 18 387.5 c 128,-1,24
 32 428 32 428 54.5 456 c 128,-1,25
 77 484 77 484 106.5 498.5 c 128,-1,26
 136 513 136 513 170 513 c 256,27,28
 204 513 204 513 225.5 499 c 128,-1,29
 247 485 247 485 262 462 c 128,-1,30
 277 439 277 439 286.5 408 c 128,-1,31
 296 377 296 377 306 343 c 1,32,-1
 390 521 l 1,0,-1
260 259 m 0,33,34
 254 310 254 310 241 350 c 0,35,36
 236 367 236 367 229 384 c 128,-1,37
 222 401 222 401 213 414 c 128,-1,38
 204 427 204 427 192.5 435.5 c 128,-1,39
 181 444 181 444 167 444 c 0,40,41
 147 445 147 445 130.5 428 c 128,-1,42
 114 411 114 411 102.5 384 c 128,-1,43
 91 357 91 357 83.5 323 c 128,-1,44
 76 289 76 289 73 255.5 c 128,-1,45
 70 222 70 222 72 192.5 c 128,-1,46
 74 163 74 163 80 144 c 0,47,48
 93 103 93 103 112.5 82.5 c 128,-1,49
 132 62 132 62 154 62 c 0,50,51
 183 62 183 62 210 98 c 128,-1,52
 237 134 237 134 250 208 c 0,53,54
 252 222 252 222 254 231 c 128,-1,55
 256 240 256 240 257 247 c 0,56,57
 259 254 259 254 260 259 c 0,33,34
EndSplineSet
Validated: 33
EndChar

StartChar: g
Encoding: 9 72650 9
Width: 504
GlyphClass: 2
Flags: W
LayerCount: 2
Fore
SplineSet
392 500 m 1,0,-1
 396 143 l 2,1,2
 397 123 397 123 392 104 c 0,3,4
 388 88 388 88 378 70 c 128,-1,5
 368 52 368 52 348 38 c 0,6,7
 327 24 327 24 303.5 16.5 c 128,-1,8
 280 9 280 9 258 5.5 c 128,-1,9
 236 2 236 2 217.5 1.5 c 128,-1,10
 199 1 199 1 188 1 c 0,11,12
 164 2 164 2 131 7 c 128,-1,13
 98 12 98 12 68 18.5 c 128,-1,14
 38 25 38 25 18 31 c 128,-1,15
 -2 37 -2 37 0 39 c 256,16,17
 2 41 2 41 2.5 48.5 c 128,-1,18
 3 56 3 56 2 65 c 0,19,20
 1 75 1 75 0 88 c 1,21,22
 9 85 9 85 28.5 79.5 c 128,-1,23
 48 74 48 74 73.5 68 c 128,-1,24
 99 62 99 62 128.5 58 c 128,-1,25
 158 54 158 54 187 54 c 0,26,27
 221 54 221 54 250.5 61.5 c 128,-1,28
 280 69 280 69 300 88 c 0,29,30
 311 99 311 99 315 122.5 c 128,-1,31
 319 146 319 146 319 170 c 0,32,33
 319 198 319 198 316 230 c 1,34,35
 297 225 297 225 276 221 c 0,36,37
 257 218 257 218 233 215 c 128,-1,38
 209 212 209 212 182 212 c 0,39,40
 156 212 156 212 129 216 c 128,-1,41
 102 220 102 220 78 230 c 128,-1,42
 54 240 54 240 35.5 257.5 c 128,-1,43
 17 275 17 275 6 302 c 0,44,45
 -1 320 -1 320 -1.5 340 c 128,-1,46
 -2 360 -2 360 6 384 c 128,-1,47
 14 408 14 408 32 436.5 c 128,-1,48
 50 465 50 465 80 500 c 1,49,-1
 145 464 l 1,50,51
 110 435 110 435 93.5 410.5 c 128,-1,52
 77 386 77 386 74 365.5 c 128,-1,53
 71 345 71 345 77 329 c 128,-1,54
 83 313 83 313 94 301.5 c 128,-1,55
 105 290 105 290 116.5 283.5 c 128,-1,56
 128 277 128 277 135 275 c 0,57,58
 158 270 158 270 188.5 274 c 128,-1,59
 219 278 219 278 247 285 c 0,60,61
 280 293 280 293 315 305 c 1,62,-1
 315 499 l 1,63,-1
 392 500 l 1,0,-1
EndSplineSet
Validated: 33
EndChar

StartChar: h
Encoding: 10 72651 10
Width: 454
GlyphClass: 2
Flags: W
LayerCount: 2
Fore
SplineSet
72 500 m 1,0,-1
 157 500 l 1,1,-1
 155 334 l 1,2,-1
 288 334 l 1,3,-1
 353 0 l 1,4,-1
 313 0 l 1,5,-1
 246 277 l 1,6,-1
 157 277 l 1,7,-1
 157 0 l 1,8,-1
 74 0 l 1,9,-1
 74 277 l 1,10,-1
 3 278 l 1,11,-1
 3 334 l 1,12,-1
 72 334 l 1,13,-1
 72 500 l 1,0,-1
EndSplineSet
Validated: 1
EndChar

StartChar: i
Encoding: 11 72643 11
Width: 341
GlyphClass: 2
Flags: W
AnchorPoint: "Tilde" 124 574 basechar 0
LayerCount: 2
Fore
SplineSet
151 506 m 1,0,-1
 153 398 l 1,1,-1
 239 425 l 1,2,-1
 240 366 l 1,3,-1
 151 338 l 1,4,-1
 151 0 l 1,5,-1
 78 0 l 1,6,-1
 78 313 l 1,7,-1
 0 284 l 1,8,-1
 -1 347 l 1,9,-1
 78 373 l 1,10,-1
 81 506 l 1,11,-1
 151 506 l 1,0,-1
EndSplineSet
Validated: 1
EndChar

StartChar: j
Encoding: 12 72655 12
Width: 571
GlyphClass: 2
Flags: W
LayerCount: 2
Fore
SplineSet
439 499 m 1,0,-1
 393 347 l 1,1,-1
 470 345 l 1,2,-1
 468 296 l 1,3,-1
 372 296 l 1,4,-1
 289 0 l 1,5,-1
 218 0 l 1,6,-1
 2 501 l 1,7,-1
 70 501 l 1,8,-1
 253 86 l 1,9,-1
 308 296 l 1,10,-1
 253 296 l 1,11,-1
 254 347 l 1,12,-1
 323 348 l 1,13,-1
 372 501 l 1,14,-1
 439 499 l 1,0,-1
EndSplineSet
Validated: 1
EndChar

StartChar: k
Encoding: 13 72646 13
Width: 499
GlyphClass: 2
Flags: W
LayerCount: 2
Fore
SplineSet
151 496 m 1,0,-1
 154 375 l 1,1,-1
 429 375 l 1,2,3
 368 332 368 332 327 285 c 0,4,5
 309 265 309 265 294.5 242.5 c 128,-1,6
 280 220 280 220 272 196.5 c 128,-1,7
 264 173 264 173 265 148.5 c 128,-1,8
 266 124 266 124 280 100 c 0,9,10
 291 80 291 80 302.5 71.5 c 128,-1,11
 314 63 314 63 325 63 c 0,12,13
 347 63 347 63 364.5 90.5 c 128,-1,14
 382 118 382 118 393 163 c 1,15,16
 413 134 413 134 418 107 c 0,17,18
 420 95 420 95 419 82.5 c 128,-1,19
 418 70 418 70 411.5 58 c 128,-1,20
 405 46 405 46 392 35 c 128,-1,21
 379 24 379 24 358 15 c 0,22,23
 347 10 347 10 337 8.5 c 128,-1,24
 327 7 327 7 318 7 c 0,25,26
 295 7 295 7 277 17 c 128,-1,27
 259 27 259 27 245.5 41.5 c 128,-1,28
 232 56 232 56 224 71.5 c 128,-1,29
 216 87 216 87 213 98 c 0,30,31
 201 139 201 139 206 173 c 128,-1,32
 211 207 211 207 224.5 235.5 c 128,-1,33
 238 264 238 264 256 287 c 128,-1,34
 274 310 274 310 289 329 c 1,35,-1
 154 329 l 1,36,-1
 154 3 l 1,37,-1
 84 4 l 1,38,-1
 80 329 l 1,39,-1
 0 329 l 1,40,-1
 0 375 l 1,41,-1
 80 375 l 1,42,-1
 80 496 l 1,43,-1
 151 496 l 1,0,-1
EndSplineSet
Validated: 33
EndChar

StartChar: m
Encoding: 14 72647 14
Width: 802
GlyphClass: 2
Flags: W
LayerCount: 2
Fore
SplineSet
630 463 m 1,0,1
 604 429 604 429 583 398 c 0,2,3
 565 372 565 372 548.5 345 c 128,-1,4
 532 318 532 318 527 301 c 0,5,6
 517 269 517 269 515.5 244 c 128,-1,7
 514 219 514 219 514 195 c 0,8,9
 515 157 515 157 536.5 130 c 128,-1,10
 558 103 558 103 586.5 84.5 c 128,-1,11
 615 66 615 66 643 54.5 c 128,-1,12
 671 43 671 43 685 35 c 0,13,14
 706 23 706 23 701 16 c 128,-1,15
 696 9 696 9 680.5 6 c 128,-1,16
 665 3 665 3 645 3 c 128,-1,17
 625 3 625 3 615 4 c 0,18,19
 591 8 591 8 560.5 25 c 128,-1,20
 530 42 530 42 504 69 c 128,-1,21
 478 96 478 96 460 130 c 128,-1,22
 442 164 442 164 442 203 c 0,23,24
 442 232 442 232 446.5 258 c 128,-1,25
 451 284 451 284 460.5 311.5 c 128,-1,26
 470 339 470 339 484 369.5 c 128,-1,27
 498 400 498 400 516 437 c 1,28,-1
 378 437 l 1,29,-1
 378 3 l 1,30,-1
 316 3 l 1,31,-1
 316 437 l 1,32,-1
 189 437 l 1,33,34
 194 416 194 416 202.5 393 c 128,-1,35
 211 370 211 370 220.5 345.5 c 128,-1,36
 230 321 230 321 238.5 294 c 128,-1,37
 247 267 247 267 251 238 c 0,38,39
 256 210 256 210 250.5 186.5 c 128,-1,40
 245 163 245 163 235 144.5 c 128,-1,41
 225 126 225 126 211.5 110.5 c 128,-1,42
 198 95 198 95 186 82 c 256,43,44
 174 69 174 69 164.5 56.5 c 128,-1,45
 155 44 155 44 144 33.5 c 128,-1,46
 133 23 133 23 119 15 c 128,-1,47
 105 7 105 7 85 4 c 0,48,49
 78 3 78 3 62.5 4 c 128,-1,50
 47 5 47 5 32 8.5 c 128,-1,51
 17 12 17 12 7 18 c 128,-1,52
 -3 24 -3 24 -0.5 33 c 128,-1,53
 2 42 2 42 21.5 53.5 c 128,-1,54
 41 65 41 65 86 80 c 0,55,56
 97 87 97 87 112 96.5 c 128,-1,57
 127 106 127 106 140.5 121 c 128,-1,58
 154 136 154 136 163.5 158 c 128,-1,59
 173 180 173 180 173 210 c 0,60,61
 173 225 173 225 172 237 c 128,-1,62
 171 249 171 249 168.5 260 c 128,-1,63
 166 271 166 271 163 282.5 c 128,-1,64
 160 294 160 294 157 309 c 0,65,66
 151 333 151 333 140 358 c 128,-1,67
 129 383 129 383 116 407 c 128,-1,68
 103 431 103 431 90 455 c 128,-1,69
 77 479 77 479 67 502 c 1,70,71
 75 502 75 502 102 498.5 c 128,-1,72
 129 495 129 495 165.5 490.5 c 128,-1,73
 202 486 202 486 243.5 482.5 c 128,-1,74
 285 479 285 479 322 479 c 0,75,76
 349 479 349 479 380.5 481.5 c 128,-1,77
 412 484 412 484 440.5 488 c 128,-1,78
 469 492 469 492 490.5 495.5 c 128,-1,79
 512 499 512 499 518 502 c 1,80,-1
 630 463 l 1,0,1
EndSplineSet
Validated: 33
EndChar

StartChar: l
Encoding: 15 72656 15
Width: 450
GlyphClass: 2
Flags: W
LayerCount: 2
Fore
SplineSet
118 500 m 1,0,-1
 204 500 l 1,1,-1
 200 132 l 1,2,3
 229 126 229 126 256 110 c 0,4,5
 280 96 280 96 305.5 69 c 128,-1,6
 331 42 331 42 350 -5 c 0,7,8
 351 -7 351 -7 334.5 5 c 128,-1,9
 318 17 318 17 292 31 c 128,-1,10
 266 45 266 45 233 57.5 c 128,-1,11
 200 70 200 70 168 70 c 0,12,13
 141 70 141 70 120 60 c 0,14,15
 106 53 106 53 85.5 42.5 c 128,-1,16
 65 32 65 32 46 21 c 0,17,18
 24 8 24 8 0 -5 c 1,19,20
 0 11 0 11 1 25 c 2,21,-1
 1 66 l 2,22,23
 1 75 1 75 19 86 c 128,-1,24
 37 97 37 97 60 108 c 0,25,26
 86 120 86 120 120 132 c 1,27,-1
 118 500 l 1,0,-1
EndSplineSet
Validated: 1
EndChar

StartChar: w
Encoding: 16 72659 16
Width: 492
GlyphClass: 2
Flags: W
LayerCount: 2
Fore
SplineSet
66 505 m 1,0,-1
 66 314 l 1,1,-1
 220 169 l 1,2,-1
 323 319 l 1,3,-1
 391 319 l 1,4,5
 374 287 374 287 353 255 c 128,-1,6
 332 223 332 223 310.5 191.5 c 128,-1,7
 289 160 289 160 269 128.5 c 128,-1,8
 249 97 249 97 234 65 c 1,9,-1
 65 223 l 1,10,-1
 65 0 l 1,11,-1
 1 1 l 1,12,-1
 1 505 l 1,13,-1
 66 505 l 1,0,-1
EndSplineSet
Validated: 1
EndChar

StartChar: n
Encoding: 17 72653 17
Width: 551
GlyphClass: 2
Flags: W
LayerCount: 2
Fore
SplineSet
449 44 m 1,0,1
 401 21 401 21 365 11.5 c 128,-1,2
 329 2 329 2 303 2 c 0,3,4
 267 2 267 2 248 18 c 128,-1,5
 229 34 229 34 222.5 58 c 128,-1,6
 216 82 216 82 218 111 c 128,-1,7
 220 140 220 140 225.5 166 c 128,-1,8
 231 192 231 192 237.5 211.5 c 128,-1,9
 244 231 244 231 245 236 c 0,10,11
 253 273 253 273 260 301 c 128,-1,12
 267 329 267 329 270 347.5 c 128,-1,13
 273 366 273 366 269.5 376.5 c 128,-1,14
 266 387 266 387 253 388 c 0,15,16
 242 390 242 390 233 389.5 c 128,-1,17
 224 389 224 389 218 387 c 0,18,19
 211 386 211 386 206 384 c 1,20,21
 207 360 207 360 203 339 c 0,22,23
 200 321 200 321 192.5 302.5 c 128,-1,24
 185 284 185 284 169 273 c 0,25,26
 159 266 159 266 138 266 c 0,27,28
 121 266 121 266 104 275 c 128,-1,29
 87 284 87 284 81 310 c 0,30,31
 73 344 73 344 81.5 364.5 c 128,-1,32
 90 385 90 385 104 396 c 0,33,34
 120 410 120 410 142 416 c 1,35,36
 141 433 141 433 137 448 c 0,37,38
 134 461 134 461 127.5 472.5 c 128,-1,39
 121 484 121 484 110 489 c 0,40,41
 98 494 98 494 83 490 c 128,-1,42
 68 486 68 486 53.5 479.5 c 128,-1,43
 39 473 39 473 27 467 c 128,-1,44
 15 461 15 461 9 461 c 0,45,46
 4 461 4 461 4 466 c 0,47,48
 4 472 4 472 3.5 477 c 128,-1,49
 3 482 3 482 2 487 c 256,50,51
 1 492 1 492 0 496 c 0,52,53
 37 516 37 516 65 524.5 c 128,-1,54
 93 533 93 533 114 533 c 0,55,56
 148 533 148 533 165 516 c 128,-1,57
 182 499 182 499 190 479 c 0,58,59
 198 455 198 455 198 425 c 1,60,61
 211 428 211 428 226 430 c 0,62,63
 238 432 238 432 253.5 433 c 128,-1,64
 269 434 269 434 283 432 c 0,65,66
 317 430 317 430 331.5 412 c 128,-1,67
 346 394 346 394 349 367 c 128,-1,68
 352 340 352 340 345.5 307.5 c 128,-1,69
 339 275 339 275 330 244 c 128,-1,70
 321 213 321 213 312 187 c 128,-1,71
 303 161 303 161 300 147 c 0,72,73
 297 134 297 134 294 118 c 128,-1,74
 291 102 291 102 292.5 88 c 128,-1,75
 294 74 294 74 301.5 64 c 128,-1,76
 309 54 309 54 326 54 c 256,77,78
 343 54 343 54 373 66.5 c 128,-1,79
 403 79 403 79 450 110 c 1,80,-1
 449 44 l 1,0,1
138 302 m 0,81,82
 148 302 148 302 154 311.5 c 128,-1,83
 160 321 160 321 160 333 c 0,84,85
 160 340 160 340 159.5 346.5 c 128,-1,86
 159 353 159 353 158 358 c 0,87,88
 157 364 157 364 156 369 c 1,89,90
 146 367 146 367 137 362 c 0,91,92
 130 358 130 358 123.5 351 c 128,-1,93
 117 344 117 344 115 333 c 0,94,95
 115 321 115 321 119.5 311.5 c 128,-1,96
 124 302 124 302 138 302 c 0,81,82
EndSplineSet
Validated: 33
EndChar

StartChar: o
Encoding: 18 72657 18
Width: 488
GlyphClass: 2
Flags: W
AnchorPoint: "Tilde" 223 548 basechar 0
LayerCount: 2
Fore
SplineSet
178 497 m 0,0,1
 253 490 253 490 296 457 c 128,-1,2
 339 424 339 424 360 380.5 c 128,-1,3
 381 337 381 337 385 289.5 c 128,-1,4
 389 242 389 242 386 205 c 0,5,6
 381 165 381 165 367 129.5 c 128,-1,7
 353 94 353 94 328.5 67 c 128,-1,8
 304 40 304 40 267 23.5 c 128,-1,9
 230 7 230 7 178 3 c 0,10,11
 144 3 144 3 113 24.5 c 128,-1,12
 82 46 82 46 58 75 c 128,-1,13
 34 104 34 104 19.5 134 c 128,-1,14
 5 164 5 164 5 180 c 2,15,-1
 2 195 l 2,16,17
 1 203 1 203 1 211 c 128,-1,18
 1 219 1 219 0 228 c 0,19,20
 0 231 0 231 -0.5 233.5 c 128,-1,21
 -1 236 -1 236 -1 239 c 0,22,23
 -1 266 -1 266 3.5 295.5 c 128,-1,24
 8 325 8 325 18 354 c 128,-1,25
 28 383 28 383 43.5 408.5 c 128,-1,26
 59 434 59 434 80 452 c 0,27,28
 87 459 87 459 91.5 464 c 128,-1,29
 96 469 96 469 103 473 c 0,30,31
 106 476 106 476 113 479.5 c 128,-1,32
 120 483 120 483 129 486.5 c 128,-1,33
 138 490 138 490 146 492.5 c 128,-1,34
 154 495 154 495 158 496 c 256,35,36
 162 497 162 497 167.5 497.5 c 128,-1,37
 173 498 173 498 178 497 c 0,0,1
120 95 m 0,38,39
 157 62 157 62 191 62 c 0,40,41
 223 62 223 62 246.5 90 c 128,-1,42
 270 118 270 118 285 160.5 c 128,-1,43
 300 203 300 203 306 252.5 c 128,-1,44
 312 302 312 302 309 344.5 c 128,-1,45
 306 387 306 387 294.5 416.5 c 128,-1,46
 283 446 283 446 262 447 c 0,47,48
 218 456 218 456 185 438 c 128,-1,49
 152 420 152 420 129.5 387 c 128,-1,50
 107 354 107 354 95 310.5 c 128,-1,51
 83 267 83 267 82 225 c 128,-1,52
 81 183 81 183 90.5 147.5 c 128,-1,53
 100 112 100 112 120 95 c 0,38,39
EndSplineSet
Validated: 33
EndChar

StartChar: r
Encoding: 19 72644 19
Width: 534
GlyphClass: 2
Flags: W
LayerCount: 2
Fore
SplineSet
309 506 m 1,0,-1
 309 245 l 1,1,-1
 433 137 l 1,2,-1
 434 64 l 1,3,-1
 309 176 l 1,4,-1
 309 2 l 1,5,-1
 241 1 l 1,6,-1
 241 221 l 1,7,-1
 78 359 l 1,8,-1
 78 0 l 1,9,-1
 0 0 l 1,10,-1
 0 499 l 1,11,-1
 241 292 l 1,12,-1
 241 506 l 1,13,-1
 309 506 l 1,0,-1
EndSplineSet
Validated: 1
EndChar

StartChar: shyele
Encoding: 20 72658 20
Width: 545
GlyphClass: 2
Flags: W
LayerCount: 2
Fore
SplineSet
440 500 m 1,0,-1
 309 321 l 1,1,-1
 354 322 l 1,2,-1
 355 271 l 1,3,-1
 270 272 l 1,4,-1
 80 0 l 1,5,-1
 0 0 l 1,6,-1
 185 271 l 1,7,-1
 89 271 l 1,8,-1
 92 322 l 1,9,-1
 221 322 l 1,10,-1
 311 450 l 1,11,-1
 0 450 l 1,12,-1
 -1 501 l 1,13,-1
 440 500 l 1,0,-1
EndSplineSet
Validated: 1
EndChar

StartChar: t
Encoding: 21 72641 21
Width: 507
GlyphClass: 2
Flags: W
LayerCount: 2
Fore
SplineSet
-2 416 m 1,0,1
 30 445 30 445 66 468 c 0,2,3
 97 487 97 487 136 503 c 128,-1,4
 175 519 175 519 216 519 c 0,5,6
 254 519 254 519 290 501 c 128,-1,7
 326 483 326 483 356 435 c 0,8,9
 368 417 368 417 375.5 393 c 128,-1,10
 383 369 383 369 382.5 336 c 128,-1,11
 382 303 382 303 372 259.5 c 128,-1,12
 362 216 362 216 338 159 c 1,13,-1
 407 88 l 1,14,-1
 407 3 l 1,15,-1
 307 96 l 1,16,17
 297 72 297 72 284.5 57 c 128,-1,18
 272 42 272 42 258 32.5 c 128,-1,19
 244 23 244 23 229 17.5 c 128,-1,20
 214 12 214 12 198 7 c 0,21,22
 187 4 187 4 172 4.5 c 128,-1,23
 157 5 157 5 141.5 7 c 128,-1,24
 126 9 126 9 112.5 12.5 c 128,-1,25
 99 16 99 16 90 20 c 0,26,27
 52 36 52 36 27 58.5 c 128,-1,28
 2 81 2 81 2 95 c 1,29,-1
 188 289 l 1,30,-1
 279 204 l 1,31,32
 287 236 287 236 294.5 267.5 c 128,-1,33
 302 299 302 299 306 322 c 0,34,35
 311 354 311 354 305 378 c 128,-1,36
 299 402 299 402 288 419 c 128,-1,37
 277 436 277 436 263.5 445.5 c 128,-1,38
 250 455 250 455 240 458 c 0,39,40
 222 463 222 463 207 463 c 0,41,42
 177 463 177 463 149 450.5 c 128,-1,43
 121 438 121 438 100 423 c 0,44,45
 74 405 74 405 52 382 c 1,46,-1
 -2 416 l 1,0,1
172 206 m 1,47,-1
 73 104 l 1,48,49
 76 100 76 100 90.5 91.5 c 128,-1,50
 105 83 105 83 122 74.5 c 128,-1,51
 139 66 139 66 153 60.5 c 128,-1,52
 167 55 167 55 170 58 c 0,53,54
 184 57 184 57 197 67.5 c 128,-1,55
 210 78 210 78 220.5 92.5 c 128,-1,56
 231 107 231 107 238 122 c 128,-1,57
 245 137 245 137 246 144 c 1,58,-1
 172 206 l 1,47,-1
EndSplineSet
Validated: 33
EndChar

StartChar: u
Encoding: 22 72645 22
Width: 501
GlyphClass: 2
Flags: W
AnchorPoint: "Tilde" 186 589 basechar 0
LayerCount: 2
Fore
SplineSet
0 423 m 1,0,1
 25 473 25 473 70.5 495.5 c 128,-1,2
 116 518 116 518 164 518 c 0,3,4
 195 518 195 518 224.5 509.5 c 128,-1,5
 254 501 254 501 276.5 484.5 c 128,-1,6
 299 468 299 468 312.5 445.5 c 128,-1,7
 326 423 326 423 325 394 c 0,8,9
 325 375 325 375 317 352.5 c 128,-1,10
 309 330 309 330 292.5 300.5 c 128,-1,11
 276 271 276 271 250.5 234 c 128,-1,12
 225 197 225 197 190 149 c 1,13,14
 216 171 216 171 251.5 203 c 128,-1,15
 287 235 287 235 319.5 265 c 128,-1,16
 352 295 352 295 375 317 c 128,-1,17
 398 339 398 339 400 341 c 1,18,-1
 400 253 l 1,19,20
 360 218 360 218 328 192 c 128,-1,21
 296 166 296 166 263.5 139.5 c 128,-1,22
 231 113 231 113 194.5 80.5 c 128,-1,23
 158 48 158 48 110 0 c 1,24,-1
 0 0 l 1,25,26
 15 17 15 17 45 54 c 128,-1,27
 75 91 75 91 108.5 137 c 128,-1,28
 142 183 142 183 173 233 c 128,-1,29
 204 283 204 283 222.5 327.5 c 128,-1,30
 241 372 241 372 240.5 406 c 128,-1,31
 240 440 240 440 210 453 c 1,32,33
 178 461 178 461 141 447 c 128,-1,34
 104 433 104 433 72.5 410.5 c 128,-1,35
 41 388 41 388 20.5 364 c 128,-1,36
 0 340 0 340 0 327 c 1,37,-1
 0 423 l 1,0,1
EndSplineSet
Validated: 33
EndChar

StartChar: v
Encoding: 23 72672 23
Width: 437
GlyphClass: 2
Flags: W
LayerCount: 2
Fore
SplineSet
70 500 m 1,0,-1
 70 391 l 1,1,2
 80 412 80 412 105 429 c 128,-1,3
 130 446 130 446 152 446 c 0,4,5
 224 446 224 446 266 413 c 128,-1,6
 308 380 308 380 324 330.5 c 128,-1,7
 340 281 340 281 333.5 223.5 c 128,-1,8
 327 166 327 166 302.5 116.5 c 128,-1,9
 278 67 278 67 237 34 c 128,-1,10
 196 1 196 1 145 1 c 0,11,12
 93 1 93 1 58.5 35 c 128,-1,13
 24 69 24 69 7 117 c 0,14,15
 9 119 9 119 18 122 c 128,-1,16
 27 125 27 125 38 129 c 0,17,18
 50 133 50 133 66 138 c 1,19,20
 85 93 85 93 104 74 c 128,-1,21
 123 55 123 55 141 55 c 0,22,23
 157 55 157 55 171.5 66.5 c 128,-1,24
 186 78 186 78 199 96.5 c 128,-1,25
 212 115 212 115 222.5 138 c 128,-1,26
 233 161 233 161 240.5 183 c 128,-1,27
 248 205 248 205 252.5 224 c 128,-1,28
 257 243 257 243 257 254 c 0,29,30
 257 275 257 275 251.5 299 c 128,-1,31
 246 323 246 323 235 344 c 128,-1,32
 224 365 224 365 207 378.5 c 128,-1,33
 190 392 190 392 168 392 c 0,34,35
 156 392 156 392 142 385.5 c 128,-1,36
 128 379 128 379 115 369 c 128,-1,37
 102 359 102 359 90.5 347.5 c 128,-1,38
 79 336 79 336 70 325 c 1,39,-1
 70 240 l 1,40,-1
 -4 240 l 1,41,-1
 -4 499 l 1,42,-1
 70 500 l 1,0,-1
EndSplineSet
Validated: 33
EndChar

StartChar: y
Encoding: 24 72660 24
Width: 508
GlyphClass: 2
Flags: W
LayerCount: 2
Fore
SplineSet
219 500 m 0,0,1
 236 500 236 500 257 498 c 128,-1,2
 278 496 278 496 297.5 489 c 128,-1,3
 317 482 317 482 334 470 c 128,-1,4
 351 458 351 458 361 438 c 1,5,-1
 151 106 l 1,6,7
 168 85 168 85 195.5 71 c 128,-1,8
 223 57 223 57 251 57 c 0,9,10
 277 57 277 57 298.5 72 c 128,-1,11
 320 87 320 87 330 122 c 1,12,-1
 403 92 l 1,13,-1
 398 87 l 2,14,15
 398 86 398 86 396 84 c 2,16,17
 396 84 396 84 394 81 c 0,18,19
 392 80 392 80 392 80 c 1,20,-1
 391 79 l 2,21,22
 379 66 379 66 365.5 52 c 128,-1,23
 352 38 352 38 336.5 26.5 c 128,-1,24
 321 15 321 15 302.5 8 c 128,-1,25
 284 1 284 1 261 1 c 0,26,27
 242 1 242 1 220.5 5.5 c 128,-1,28
 199 10 199 10 178.5 18 c 128,-1,29
 158 26 158 26 139.5 36 c 128,-1,30
 121 46 121 46 109 56 c 1,31,-1
 70 0 l 1,32,-1
 0 0 l 1,33,-1
 68 99 l 1,34,35
 47 129 47 129 34 155 c 128,-1,36
 21 181 21 181 14 204.5 c 128,-1,37
 7 228 7 228 5 249 c 128,-1,38
 3 270 3 270 3 289 c 0,39,40
 3 347 3 347 21 387.5 c 128,-1,41
 39 428 39 428 69 453 c 128,-1,42
 99 478 99 478 138 489 c 128,-1,43
 177 500 177 500 219 500 c 0,0,1
280 423 m 2,44,45
 279 424 279 424 275 429 c 128,-1,46
 271 434 271 434 261.5 439.5 c 128,-1,47
 252 445 252 445 236 449 c 128,-1,48
 220 453 220 453 193 452 c 0,49,50
 158 451 158 451 133.5 429.5 c 128,-1,51
 109 408 109 408 94.5 377.5 c 128,-1,52
 80 347 80 347 74.5 312.5 c 128,-1,53
 69 278 69 278 70 250 c 0,54,55
 71 226 71 226 76.5 207 c 128,-1,56
 82 188 82 188 89 174.5 c 128,-1,57
 96 161 96 161 102 153.5 c 128,-1,58
 108 146 108 146 109 144 c 1,59,-1
 280 423 l 2,44,45
EndSplineSet
Validated: 33
EndChar

StartChar: z
Encoding: 25 771 25
Width: 11
GlyphClass: 2
Flags: W
AnchorPoint: "Tilde" -264 466 mark 0
LayerCount: 2
Fore
SplineSet
-66 585 m 1,0,1
 -78 562 -78 562 -95 544 c 0,2,3
 -109 528 -109 528 -129.5 515 c 128,-1,4
 -150 502 -150 502 -177 502 c 0,5,6
 -190 502 -190 502 -208 507 c 0,7,8
 -252 520 -252 520 -287.5 525 c 128,-1,9
 -323 530 -323 530 -351 530 c 0,10,11
 -376 530 -376 530 -394 527.5 c 128,-1,12
 -412 525 -412 525 -424 522 c 0,13,14
 -438 518 -438 518 -448 513 c 1,15,16
 -425 544 -425 544 -397 568 c 0,17,18
 -374 589 -374 589 -342.5 606 c 128,-1,19
 -311 623 -311 623 -275 623 c 0,20,21
 -251 623 -251 623 -228 613 c 0,22,23
 -190 597 -190 597 -160 591 c 128,-1,24
 -130 585 -130 585 -109 583 c 0,25,26
 -85 582 -85 582 -66 585 c 1,0,1
EndSplineSet
Validated: 33
EndChar

StartChar: A
Encoding: 27 72662 27
Width: 485
GlyphClass: 2
Flags: W
AnchorPoint: "Tilde" 208 550 entry 0
AnchorPoint: "Tilde" 0 0 basechar 0
LayerCount: 2
Fore
SplineSet
385 -10 m 1,0,-1
 0 -2 l 1,1,-1
 160 233 l 1,2,-1
 0 233 l 1,3,-1
 150 439 l 1,4,-1
 0 441 l 1,5,-1
 0 490 l 1,6,-1
 385 490 l 1,7,-1
 385 -10 l 1,0,-1
315 47 m 1,8,-1
 314 443 l 1,9,-1
 231 441 l 1,10,-1
 90 261 l 1,11,-1
 245 261 l 1,12,-1
 100 47 l 1,13,-1
 315 47 l 1,8,-1
EndSplineSet
Validated: 1
EndChar

StartChar: B
Encoding: 28 72661 28
Width: 525
GlyphClass: 2
Flags: W
LayerCount: 2
Fore
SplineSet
0 304 m 1,0,-1
 0 366 l 1,1,-1
 150 500 l 1,2,-1
 220 500 l 1,3,-1
 215 271 l 1,4,-1
 319 271 l 1,5,6
 304 333 304 333 291 383 c 0,7,8
 286 404 286 404 281 424.5 c 128,-1,9
 276 445 276 445 271.5 461 c 128,-1,10
 267 477 267 477 264 488 c 128,-1,11
 261 499 261 499 260 500 c 1,12,-1
 330 500 l 1,13,14
 360 404 360 404 385 327 c 0,15,16
 396 294 396 294 406.5 262 c 128,-1,17
 417 230 417 230 426 203.5 c 128,-1,18
 435 177 435 177 442 159.5 c 128,-1,19
 449 142 449 142 452 137 c 0,20,21
 458 129 458 129 452.5 126 c 128,-1,22
 447 123 447 123 435.5 122.5 c 128,-1,23
 424 122 424 122 410.5 122.5 c 128,-1,24
 397 123 397 123 386 121 c 0,25,26
 365 117 365 117 351 108 c 128,-1,27
 337 99 337 99 335 80 c 0,28,29
 334 71 334 71 336.5 59.5 c 128,-1,30
 339 48 339 48 344 39 c 128,-1,31
 349 30 349 30 356 25.5 c 128,-1,32
 363 21 363 21 372 25 c 0,33,34
 411 41 411 41 430 41 c 0,35,36
 444 41 444 41 448 32.5 c 128,-1,37
 452 24 452 24 452 8 c 0,38,39
 452 -6 452 -6 448 -6 c 256,40,41
 444 -6 444 -6 435 -1.5 c 128,-1,42
 426 3 426 3 407 3 c 0,43,44
 399 3 399 3 390 2 c 128,-1,45
 381 1 381 1 370 -2 c 0,46,47
 348 -8 348 -8 328 -0.5 c 128,-1,48
 308 7 308 7 294 21.5 c 128,-1,49
 280 36 280 36 273 55 c 128,-1,50
 266 74 266 74 270 91 c 0,51,52
 273 105 273 105 286.5 117.5 c 128,-1,53
 300 130 300 130 316 140 c 0,54,55
 333 151 333 151 355 161 c 1,56,-1
 331 240 l 1,57,-1
 216 240 l 1,58,-1
 224 91 l 2,59,60
 226 78 226 78 221 64 c 0,61,62
 217 52 217 52 205.5 37 c 128,-1,63
 194 22 194 22 168 8 c 0,64,65
 154 0 154 0 140.5 -3.5 c 128,-1,66
 127 -7 127 -7 113 -7 c 0,67,68
 96 -7 96 -7 81 -2.5 c 128,-1,69
 66 2 66 2 53.5 8.5 c 128,-1,70
 41 15 41 15 32.5 22.5 c 128,-1,71
 24 30 24 30 20 35 c 0,72,73
 15 42 15 42 9.5 52.5 c 128,-1,74
 4 63 4 63 1 72.5 c 128,-1,75
 -2 82 -2 82 -2 88.5 c 128,-1,76
 -2 95 -2 95 4 95 c 0,77,78
 12 95 12 95 31 80 c 0,79,80
 51 63 51 63 68.5 57 c 128,-1,81
 86 51 86 51 100 51 c 0,82,83
 120 51 120 51 133 60.5 c 128,-1,84
 146 70 146 70 151 78 c 0,85,86
 153 82 153 82 154 97.5 c 128,-1,87
 155 113 155 113 155 136 c 128,-1,88
 155 159 155 159 155 186.5 c 128,-1,89
 155 214 155 214 154 242 c 0,90,91
 152 309 152 309 149 391 c 1,92,-1
 0 304 l 1,0,-1
EndSplineSet
Validated: 33
EndChar

StartChar: C
Encoding: 29 72669 29
Width: 540
GlyphClass: 2
Flags: W
LayerCount: 2
Fore
SplineSet
2 503 m 0,0,1
 -3 506 -3 506 1 506.5 c 128,-1,2
 5 507 5 507 15 505 c 128,-1,3
 25 503 25 503 38.5 499.5 c 128,-1,4
 52 496 52 496 67 492 c 0,5,6
 102 482 102 482 150 467 c 1,7,8
 156 415 156 415 160 370 c 128,-1,9
 164 325 164 325 168 283 c 128,-1,10
 172 241 172 241 177 200 c 128,-1,11
 182 159 182 159 190 115 c 1,12,13
 211 116 211 116 227 116 c 0,14,15
 242 117 242 117 255 117 c 128,-1,16
 268 117 268 117 270 115 c 1,17,18
 268 129 268 129 266 144 c 0,19,20
 264 157 264 157 263 172.5 c 128,-1,21
 262 188 262 188 260 205 c 0,22,23
 258 232 258 232 270 255.5 c 128,-1,24
 282 279 282 279 298 296 c 0,25,26
 316 317 316 317 340 334 c 1,27,-1
 440 325 l 1,28,29
 412 304 412 304 390 285 c 0,30,31
 370 269 370 269 352.5 252.5 c 128,-1,32
 335 236 335 236 330 227 c 0,33,34
 322 210 322 210 319.5 188.5 c 128,-1,35
 317 167 317 167 317 147 c 0,36,37
 317 124 317 124 320 101 c 1,38,-1
 420 32 l 1,39,-1
 424 -17 l 1,40,41
 402 4 402 4 370 21 c 0,42,43
 344 35 344 35 304 47 c 128,-1,44
 264 59 264 59 210 59 c 0,45,46
 202 59 202 59 189 55.5 c 128,-1,47
 176 52 176 52 159.5 46.5 c 128,-1,48
 143 41 143 41 125 34 c 128,-1,49
 107 27 107 27 89 20 c 0,50,51
 48 2 48 2 0 -20 c 1,52,-1
 0 40 l 1,53,-1
 120 101 l 1,54,55
 125 184 125 184 115 260 c 0,56,57
 111 293 111 293 103 327 c 128,-1,58
 95 361 95 361 81.5 393.5 c 128,-1,59
 68 426 68 426 48.5 454 c 128,-1,60
 29 482 29 482 2 503 c 0,0,1
EndSplineSet
Validated: 33
EndChar

StartChar: D
Encoding: 30 72663 30
Width: 421
GlyphClass: 2
Flags: W
LayerCount: 2
Fore
SplineSet
321 355 m 1,0,-1
 197 356 l 1,1,-1
 141 278 l 1,2,3
 175 274 175 274 211 268 c 128,-1,4
 247 262 247 262 274 243 c 128,-1,5
 301 224 301 224 313 186.5 c 128,-1,6
 325 149 325 149 310 82 c 0,7,8
 304 52 304 52 283 35 c 128,-1,9
 262 18 262 18 239 10.5 c 128,-1,10
 216 3 216 3 196 1.5 c 128,-1,11
 176 0 176 0 171 0 c 0,12,13
 125 0 125 0 93 13.5 c 128,-1,14
 61 27 61 27 40.5 43.5 c 128,-1,15
 20 60 20 60 10.5 75.5 c 128,-1,16
 1 91 1 91 1 97 c 0,17,18
 1 107 1 107 11 107 c 0,19,20
 22 107 22 107 43 97 c 128,-1,21
 64 87 64 87 88.5 76 c 128,-1,22
 113 65 113 65 138 56 c 128,-1,23
 163 47 163 47 181 50 c 0,24,25
 218 55 218 55 230 76 c 128,-1,26
 242 97 242 97 244 132 c 0,27,28
 245 156 245 156 233.5 172.5 c 128,-1,29
 222 189 222 189 205 199.5 c 128,-1,30
 188 210 188 210 169.5 216 c 128,-1,31
 151 222 151 222 137 226 c 0,32,33
 131 228 131 228 111 229.5 c 128,-1,34
 91 231 91 231 69 232 c 0,35,36
 43 233 43 233 13 234 c 1,37,-1
 116 356 l 1,38,-1
 1 355 l 1,39,-1
 1 390 l 1,40,-1
 146 391 l 1,41,-1
 218 492 l 1,42,-1
 300 490 l 1,43,-1
 219 392 l 1,44,-1
 321 391 l 1,45,-1
 321 355 l 1,0,-1
EndSplineSet
Validated: 33
EndChar

StartChar: K
Encoding: 31 72667 31
Width: 489
GlyphClass: 2
Flags: W
LayerCount: 2
Fore
SplineSet
294 465 m 1,0,-1
 79 464 l 1,1,-1
 79 -3 l 1,2,-1
 -3 -3 l 1,3,-1
 -3 544 l 1,4,-1
 326 544 l 2,5,6
 354 541 354 541 368 535.5 c 128,-1,7
 382 530 382 530 386.5 520.5 c 128,-1,8
 391 511 391 511 388 497.5 c 128,-1,9
 385 484 385 484 380 464 c 0,10,11
 366 411 366 411 354.5 367.5 c 128,-1,12
 343 324 343 324 332 282 c 128,-1,13
 321 240 321 240 309.5 196.5 c 128,-1,14
 298 153 298 153 284 99 c 0,15,16
 277 83 277 83 278 73 c 128,-1,17
 279 63 279 63 284.5 57 c 128,-1,18
 290 51 290 51 299 49 c 128,-1,19
 308 47 308 47 318 47 c 0,20,21
 331 47 331 47 342.5 49 c 128,-1,22
 354 51 354 51 360 53 c 1,23,-1
 365 -2 l 1,24,25
 322 -6 322 -6 287 -3 c 0,26,27
 272 -2 272 -2 258 1.5 c 128,-1,28
 244 5 244 5 233 10.5 c 128,-1,29
 222 16 222 16 215 24.5 c 128,-1,30
 208 33 208 33 208 45 c 2,31,-1
 294 465 l 1,0,-1
EndSplineSet
Validated: 33
EndChar

StartChar: N
Encoding: 32 72666 32
Width: 559
GlyphClass: 2
Flags: W
LayerCount: 2
Fore
SplineSet
0 162 m 1,0,1
 15 152 15 152 55 133.5 c 128,-1,2
 95 115 95 115 142 97 c 128,-1,3
 189 79 189 79 232 67.5 c 128,-1,4
 275 56 275 56 296 60 c 0,5,6
 342 71 342 71 360 91 c 128,-1,7
 378 111 378 111 376 135 c 128,-1,8
 374 159 374 159 356.5 185 c 128,-1,9
 339 211 339 211 315 233.5 c 128,-1,10
 291 256 291 256 264.5 271.5 c 128,-1,11
 238 287 238 287 218 291 c 1,12,-1
 171 258 l 1,13,-1
 75 258 l 1,14,-1
 326 436 l 1,15,-1
 -1 438 l 1,16,-1
 0 500 l 1,17,-1
 412 500 l 2,18,19
 449 500 449 500 457 481 c 128,-1,20
 465 462 465 462 441 443 c 0,21,22
 410 419 410 419 371.5 397 c 128,-1,23
 333 375 333 375 280 336 c 1,24,25
 411 260 411 260 435 202 c 0,26,27
 450 166 450 166 450.5 130 c 128,-1,28
 451 94 451 94 433 65.5 c 128,-1,29
 415 37 415 37 377.5 19.5 c 128,-1,30
 340 2 340 2 280 3 c 0,31,32
 240 3 240 3 194.5 17 c 128,-1,33
 149 31 149 31 109 49.5 c 128,-1,34
 69 68 69 68 39 87 c 128,-1,35
 9 106 9 106 0 116 c 1,36,-1
 0 162 l 1,0,1
EndSplineSet
Validated: 33
EndChar

StartChar: T
Encoding: 33 72664 33
Width: 590
GlyphClass: 2
Flags: W
LayerCount: 2
Fore
SplineSet
248 9 m 0,0,1
 207 6 207 6 174 6.5 c 128,-1,2
 141 7 141 7 114 16 c 128,-1,3
 87 25 87 25 65.5 43.5 c 128,-1,4
 44 62 44 62 25 93 c 0,5,6
 7 131 7 131 7 182 c 0,7,8
 7 219 7 219 16 243.5 c 128,-1,9
 25 268 25 268 39 284 c 128,-1,10
 53 300 53 300 71.5 308.5 c 128,-1,11
 90 317 90 317 108 323 c 1,12,-1
 252 325 l 1,13,-1
 253 446 l 1,14,-1
 3 446 l 1,15,-1
 2 500 l 1,16,-1
 335 499 l 1,17,-1
 335 325 l 1,18,19
 378 325 378 325 404 323 c 128,-1,20
 430 321 430 321 445.5 315.5 c 128,-1,21
 461 310 461 310 468.5 301 c 128,-1,22
 476 292 476 292 482 278 c 256,23,24
 488 264 488 264 489 230.5 c 128,-1,25
 490 197 490 197 489 156.5 c 128,-1,26
 488 116 488 116 486.5 76 c 128,-1,27
 485 36 485 36 486 9 c 1,28,-1
 411 9 l 1,29,30
 411 70 411 70 414.5 119 c 128,-1,31
 418 168 418 168 414 202 c 128,-1,32
 410 236 410 236 392.5 253 c 128,-1,33
 375 270 375 270 334 266 c 1,34,35
 333 136 333 136 314.5 75 c 128,-1,36
 296 14 296 14 248 9 c 0,0,1
91 204 m 0,37,38
 91 157 91 157 98 130.5 c 128,-1,39
 105 104 105 104 120 92 c 128,-1,40
 135 80 135 80 157 78 c 128,-1,41
 179 76 179 76 209 78 c 0,42,43
 223 80 223 80 230 86.5 c 128,-1,44
 237 93 237 93 242 101 c 0,45,46
 246 110 246 110 248 121 c 0,47,48
 250 140 250 140 251 164 c 0,49,50
 252 184 252 184 253 210 c 128,-1,51
 254 236 254 236 253 266 c 1,52,53
 222 267 222 267 192.5 268.5 c 128,-1,54
 163 270 163 270 140.5 265.5 c 128,-1,55
 118 261 118 261 104.5 247 c 128,-1,56
 91 233 91 233 91 204 c 0,37,38
EndSplineSet
Validated: 33
EndChar

StartChar: q
Encoding: 34 72670 34
Width: 525
GlyphClass: 2
Flags: W
LayerCount: 2
Fore
SplineSet
400 0 m 1,0,-1
 240 195 l 1,1,-1
 100 0 l 1,2,-1
 0 0 l 1,3,-1
 330 456 l 1,4,-1
 61 455 l 1,5,-1
 4 503 l 1,6,-1
 397 504 l 1,7,-1
 424 459 l 1,8,-1
 280 239 l 1,9,-1
 398 95 l 1,10,-1
 400 0 l 1,0,-1
EndSplineSet
Validated: 1
EndChar

StartChar: shyer
Encoding: 35 72668 35
Width: 451
GlyphClass: 2
Flags: W
LayerCount: 2
Fore
SplineSet
2 499 m 1,0,-1
 81 499 l 1,1,2
 80 400 80 400 80 320 c 0,3,4
 80 286 80 286 80 253 c 128,-1,5
 80 220 80 220 80.5 193.5 c 128,-1,6
 81 167 81 167 81.5 149 c 128,-1,7
 82 131 82 131 83 127 c 0,8,9
 85 121 85 121 85.5 109.5 c 128,-1,10
 86 98 86 98 92.5 87 c 128,-1,11
 99 76 99 76 115 68.5 c 128,-1,12
 131 61 131 61 164 61 c 0,13,14
 187 62 187 62 199.5 69.5 c 128,-1,15
 212 77 212 77 218 90 c 128,-1,16
 224 103 224 103 225 119.5 c 128,-1,17
 226 136 226 136 226 155 c 0,18,19
 223 200 223 200 219 234.5 c 128,-1,20
 215 269 215 269 211.5 300.5 c 128,-1,21
 208 332 208 332 207 365.5 c 128,-1,22
 206 399 206 399 210 444 c 0,23,24
 212 465 212 465 231.5 476 c 128,-1,25
 251 487 251 487 275.5 492 c 128,-1,26
 300 497 300 497 322 498 c 128,-1,27
 344 499 344 499 350 499 c 1,28,-1
 350 464 l 1,29,-1
 287 420 l 2,30,31
 281 416 281 416 281.5 390 c 128,-1,32
 282 364 282 364 286 326.5 c 128,-1,33
 290 289 290 289 295.5 245 c 128,-1,34
 301 201 301 201 305 161.5 c 128,-1,35
 309 122 309 122 309.5 91 c 128,-1,36
 310 60 310 60 303 48 c 0,37,38
 293 30 293 30 270 20.5 c 128,-1,39
 247 11 247 11 221 6.5 c 128,-1,40
 195 2 195 2 171.5 1 c 128,-1,41
 148 0 148 0 137 0 c 0,42,43
 123 0 123 0 103 3.5 c 128,-1,44
 83 7 83 7 62.5 15.5 c 128,-1,45
 42 24 42 24 25.5 39 c 128,-1,46
 9 54 9 54 2 76 c 1,47,-1
 2 499 l 1,0,-1
EndSplineSet
Validated: 33
EndChar

StartChar: StressMark
Encoding: 36 781 36
Width: 0
GlyphClass: 2
Flags: W
LayerCount: 2
Fore
SplineSet
-343 698 m 1,0,-1
 -213 698 l 1,1,-1
 -258 558 l 1,2,-1
 -303 558 l 1,3,-1
 -343 698 l 1,0,-1
EndSplineSet
Validated: 1
EndChar

StartChar: Q
Encoding: 38 72671 38
Width: 515
GlyphClass: 2
Flags: W
LayerCount: 2
Fore
SplineSet
0 71 m 1,0,-1
 260 415 l 1,1,-1
 0 415 l 1,2,-1
 0 501 l 1,3,4
 15 501 15 501 39 500.5 c 128,-1,5
 63 500 63 500 92 500 c 128,-1,6
 121 500 121 500 152.5 500 c 128,-1,7
 184 500 184 500 215 500 c 0,8,9
 288 500 288 500 370 500 c 2,10,-1
 410 500 l 1,11,-1
 202 236 l 1,12,-1
 365 235 l 1,13,-1
 365 178 l 1,14,-1
 161 180 l 1,15,-1
 67 53 l 1,16,-1
 400 56 l 1,17,-1
 402 1 l 1,18,-1
 0 0 l 1,19,-1
 0 71 l 1,0,-1
EndSplineSet
Validated: 1
EndChar

StartChar: HighToLowTone
Encoding: 39 768 39
Width: 0
GlyphClass: 2
Flags: W
LayerCount: 2
Fore
SplineSet
-222 590 m 1,0,-1
 -249 527 l 1,1,-1
 -364 658 l 1,2,-1
 -321 770 l 1,3,-1
 -222 590 l 1,0,-1
EndSplineSet
Validated: 1
EndChar

StartChar: LowToHighTone
Encoding: 40 769 40
Width: 0
GlyphClass: 2
Flags: W
LayerCount: 2
Fore
SplineSet
-288 634 m 1,0,-1
 -224 742 l 1,1,-1
 -86 696 l 1,2,-1
 -202 596 l 1,3,-1
 -288 634 l 1,0,-1
EndSplineSet
Validated: 1
EndChar

StartChar: colon
Encoding: 41 58 41
Width: 150
GlyphClass: 2
Flags: W
LayerCount: 2
Fore
SplineSet
1 424 m 0,0,1
 1 444 1 444 14.5 458.5 c 128,-1,2
 28 473 28 473 47 473 c 0,3,4
 67 473 67 473 80.5 458.5 c 128,-1,5
 94 444 94 444 94 424 c 0,6,7
 94 403 94 403 80.5 388.5 c 128,-1,8
 67 374 67 374 47 374 c 0,9,10
 28 374 28 374 14.5 388.5 c 128,-1,11
 1 403 1 403 1 424 c 0,0,1
1 61 m 0,12,13
 1 81 1 81 14.5 95.5 c 128,-1,14
 28 110 28 110 47 110 c 0,15,16
 67 110 67 110 80.5 95.5 c 128,-1,17
 94 81 94 81 94 61 c 0,18,19
 94 40 94 40 80.5 25.5 c 128,-1,20
 67 11 67 11 47 11 c 0,21,22
 28 11 28 11 14.5 25.5 c 128,-1,23
 1 40 1 40 1 61 c 0,12,13
EndSplineSet
Validated: 1
EndChar

StartChar: one
Encoding: 42 72689 42
Width: 160
GlyphClass: 2
Flags: W
LayerCount: 2
Fore
SplineSet
95 461 m 1,0,-1
 100 0 l 1,1,-1
 0 39 l 1,2,-1
 0 502 l 1,3,-1
 95 461 l 1,0,-1
EndSplineSet
Validated: 1
EndChar

StartChar: two
Encoding: 43 72690 43
Width: 500
GlyphClass: 2
Flags: W
LayerCount: 2
Fore
SplineSet
208 460 m 1,0,-1
 213 390 l 1,1,-1
 380 485 l 1,2,-1
 380 419 l 1,3,-1
 213 331 l 1,4,-1
 213 228 l 1,5,-1
 380 312 l 1,6,-1
 380 236 l 1,7,-1
 213 159 l 1,8,-1
 213 0 l 1,9,-1
 145 39 l 1,10,-1
 144 121 l 1,11,-1
 1 44 l 1,12,-1
 1 112 l 1,13,-1
 145 190 l 1,14,-1
 145 291 l 1,15,-1
 1 205 l 1,16,-1
 1 274 l 1,17,-1
 145 354 l 1,18,-1
 145 501 l 1,19,-1
 208 460 l 1,0,-1
EndSplineSet
Validated: 1
EndChar

StartChar: three
Encoding: 44 72691 44
Width: 442
GlyphClass: 2
Flags: W
LayerCount: 2
Fore
SplineSet
159 480 m 1,0,-1
 207 459 l 1,1,-1
 206 404 l 1,2,-1
 343 484 l 1,3,-1
 342 401 l 1,4,-1
 206 331 l 1,5,-1
 206 0 l 1,6,-1
 118 39 l 1,7,-1
 117 121 l 1,8,-1
 0 44 l 1,9,-1
 0 121 l 1,10,-1
 122 197 l 1,11,-1
 122 291 l 1,12,-1
 0 228 l 1,13,-1
 0 304 l 1,14,-1
 118 367 l 1,15,-1
 118 500 l 1,16,-1
 159 480 l 1,0,-1
EndSplineSet
Validated: 1
EndChar

StartChar: four
Encoding: 45 72692 45
Width: 472
GlyphClass: 2
Flags: W
LayerCount: 2
Fore
SplineSet
328 502 m 1,0,-1
 326 272 l 1,1,-1
 328 0 l 1,2,-1
 0 2 l 1,3,-1
 -2 322 l 1,4,-1
 -2 502 l 1,5,-1
 328 502 l 1,0,-1
73 56 m 1,6,-1
 255 56 l 1,7,-1
 256 456 l 1,8,-1
 70 458 l 1,9,-1
 73 56 l 1,6,-1
EndSplineSet
Validated: 1
EndChar

StartChar: five
Encoding: 46 72693 46
Width: 472
GlyphClass: 2
Flags: W
LayerCount: 2
Fore
SplineSet
330 500 m 1,0,-1
 328 271 l 1,1,-1
 330 0 l 1,2,-1
 2 2 l 1,3,-1
 0 321 l 1,4,-1
 0 500 l 1,5,-1
 330 500 l 1,0,-1
78 264 m 1,6,-1
 252 264 l 1,7,-1
 249 339 l 1,8,-1
 257 444 l 1,9,-1
 69 446 l 1,10,-1
 78 264 l 1,6,-1
80 57 m 1,11,-1
 257 59 l 1,12,-1
 257 155 l 1,13,-1
 255 207 l 1,14,-1
 80 207 l 1,15,-1
 80 57 l 1,11,-1
EndSplineSet
Validated: 1
EndChar

StartChar: six
Encoding: 47 72694 47
Width: 503
GlyphClass: 2
Flags: W
LayerCount: 2
Fore
SplineSet
195 500 m 1,0,-1
 419 500 l 1,1,-1
 420 0 l 1,2,-1
 1 1 l 1,3,-1
 1 72 l 1,4,5
 117 215 117 215 146 280 c 0,6,7
 161 313 161 313 179 358 c 0,8,9
 188 381 188 381 198 406.5 c 128,-1,10
 208 432 208 432 219 461 c 1,11,-1
 195 461 l 1,12,-1
 195 500 l 1,0,-1
45 53 m 1,13,-1
 351 53 l 1,14,-1
 351 445 l 1,15,-1
 282 444 l 1,16,17
 266 407 266 407 251.5 374.5 c 128,-1,18
 237 342 237 342 224 315 c 0,19,20
 204 275 204 275 182.5 236 c 128,-1,21
 161 197 161 197 137 159 c 0,22,23
 121 132 121 132 110 114 c 0,24,25
 87 79 87 79 45 53 c 1,13,-1
EndSplineSet
Validated: 1
EndChar

StartChar: seven
Encoding: 48 72695 48
Width: 593
GlyphClass: 2
Flags: W
LayerCount: 2
Fore
SplineSet
1 0 m 1,0,-1
 1 503 l 1,1,-1
 303 503 l 2,2,3
 364 503 364 503 349 461 c 0,4,5
 334 420 334 420 318 335 c 0,6,7
 310 293 310 293 327 218.5 c 128,-1,8
 344 144 344 144 389 59 c 1,9,-1
 419 59 l 1,10,-1
 455 0 l 1,11,-1
 1 0 l 1,0,-1
183 441 m 1,12,-1
 183 293 l 1,13,-1
 178 59 l 1,14,-1
 329 59 l 1,15,16
 299 95 299 95 280.5 141 c 128,-1,17
 262 187 262 187 255.5 238 c 128,-1,18
 249 289 249 289 253.5 341 c 128,-1,19
 258 393 258 393 273 441 c 1,20,-1
 183 441 l 1,12,-1
122 441 m 1,21,-1
 62 441 l 1,22,-1
 62 168 l 1,23,-1
 57 59 l 1,24,-1
 117 59 l 1,25,-1
 122 293 l 1,26,-1
 122 441 l 1,21,-1
EndSplineSet
Validated: 33
EndChar

StartChar: eight
Encoding: 49 72696 49
Width: 444
GlyphClass: 2
Flags: W
LayerCount: 2
Fore
SplineSet
379 510 m 1,0,-1
 219 254 l 1,1,-1
 300 116 l 1,2,-1
 372 0 l 1,3,-1
 294 0 l 1,4,-1
 181 186 l 1,5,-1
 76 0 l 1,6,-1
 0 0 l 1,7,-1
 54 100 l 1,8,-1
 141 246 l 1,9,-1
 0 504 l 1,10,-1
 79 504 l 1,11,-1
 184 317 l 1,12,-1
 246 425 l 1,13,-1
 298 511 l 1,14,-1
 379 510 l 1,0,-1
EndSplineSet
Validated: 1
EndChar

StartChar: nine
Encoding: 50 72697 50
Width: 374
GlyphClass: 2
Flags: W
LayerCount: 2
Fore
SplineSet
84 462 m 1,0,-1
 85 346 l 1,1,-1
 173 346 l 1,2,-1
 173 423 l 1,3,-1
 242 385 l 1,4,-1
 242 114 l 1,5,-1
 173 152 l 1,6,-1
 173 270 l 1,7,-1
 85 270 l 1,8,-1
 88 0 l 1,9,-1
 0 39 l 1,10,-1
 0 503 l 1,11,-1
 84 462 l 1,0,-1
EndSplineSet
Validated: 1
EndChar

StartChar: zero
Encoding: 51 72688 51
Width: 439
GlyphClass: 2
Flags: W
LayerCount: 2
Fore
SplineSet
162 506 m 256,0,1
 273 506 273 506 318 370 c 1,2,-1
 318 144 l 1,3,4
 292 -14 292 -14 162 -2 c 0,5,6
 30 7 30 7 6 142 c 1,7,-1
 1 364 l 1,8,9
 51 506 51 506 162 506 c 256,0,1
71 232 m 1,10,-1
 252 371 l 1,11,-1
 253 368 l 1,12,-1
 253 370 l 1,13,14
 229 435 229 435 162 437 c 0,15,16
 95 440 95 440 71 370 c 1,17,-1
 71 232 l 1,10,-1
253 288 m 1,18,-1
 76 167 l 1,19,20
 102 74 102 74 162 74 c 0,21,22
 229 74 229 74 253 144 c 1,23,-1
 253 288 l 1,18,-1
74 179 m 1,24,-1
 71 211 l 1,25,-1
 71 189 l 2,26,27
 72 185 72 185 74 179 c 1,24,-1
EndSplineSet
Validated: 33
EndChar

StartChar: period
Encoding: 52 46 52
Width: 402
GlyphClass: 2
Flags: W
LayerCount: 2
Fore
SplineSet
3 172 m 1,0,-1
 154 172 l 1,1,-1
 154 -2 l 1,2,-1
 3 -2 l 1,3,-1
 3 172 l 1,0,-1
EndSplineSet
Validated: 1
EndChar

StartChar: P
Encoding: 53 72673 53
Width: 729
GlyphClass: 2
Flags: W
LayerCount: 2
Fore
SplineSet
0 373 m 1,0,-1
 0 429 l 1,1,2
 57 421 57 421 100 382 c 0,3,4
 118 365 118 365 134.5 340 c 128,-1,5
 151 315 151 315 163 279 c 128,-1,6
 175 243 175 243 180 195 c 128,-1,7
 185 147 185 147 180 84 c 0,8,9
 179 73 179 73 198.5 65.5 c 128,-1,10
 218 58 218 58 238 58 c 0,11,12
 268 58 268 58 274.5 75 c 128,-1,13
 281 92 281 92 281 118 c 0,14,15
 281 129 281 129 281.5 144.5 c 128,-1,16
 282 160 282 160 280 170 c 0,17,18
 277 202 277 202 270 230.5 c 128,-1,19
 263 259 263 259 255.5 287.5 c 128,-1,20
 248 316 248 316 242 345 c 128,-1,21
 236 374 236 374 236 405 c 0,22,23
 236 430 236 430 242 448 c 128,-1,24
 248 466 248 466 256 477 c 0,25,26
 264 491 264 491 275 501 c 1,27,-1
 317 439 l 1,28,29
 311 423 311 423 307 405 c 0,30,31
 303 390 303 390 301.5 370 c 128,-1,32
 300 350 300 350 304 328 c 0,33,34
 315 263 315 263 324 195.5 c 128,-1,35
 333 128 333 128 330 62 c 1,36,37
 366 63 366 63 384.5 72 c 128,-1,38
 403 81 403 81 410.5 96 c 128,-1,39
 418 111 418 111 417 132.5 c 128,-1,40
 416 154 416 154 412 180 c 128,-1,41
 408 206 408 206 404 237 c 128,-1,42
 400 268 400 268 402 302 c 0,43,44
 404 344 404 344 417.5 379.5 c 128,-1,45
 431 415 431 415 455 439 c 128,-1,46
 479 463 479 463 513 474.5 c 128,-1,47
 547 486 547 486 591 480 c 0,48,49
 616 477 616 477 632 460 c 128,-1,50
 648 443 648 443 655.5 419 c 128,-1,51
 663 395 663 395 662 369 c 128,-1,52
 661 343 661 343 652 323 c 0,53,54
 640 296 640 296 629.5 273 c 128,-1,55
 619 250 619 250 607 229 c 128,-1,56
 595 208 595 208 580 188 c 128,-1,57
 565 168 565 168 545 147 c 1,58,-1
 519 182 l 1,59,60
 540 222 540 222 556 255 c 0,61,62
 570 284 570 284 582.5 309.5 c 128,-1,63
 595 335 595 335 597 342 c 0,64,65
 608 379 608 379 601 404.5 c 128,-1,66
 594 430 594 430 567 427 c 0,67,68
 548 425 548 425 532 414 c 128,-1,69
 516 403 516 403 503.5 387 c 128,-1,70
 491 371 491 371 483 353.5 c 128,-1,71
 475 336 475 336 472 322 c 0,72,73
 469 307 469 307 473 284 c 128,-1,74
 477 261 477 261 483 233.5 c 128,-1,75
 489 206 489 206 494.5 177 c 128,-1,76
 500 148 500 148 500 120.5 c 128,-1,77
 500 93 500 93 491 70 c 128,-1,78
 482 47 482 47 460 33 c 1,79,80
 434 22 434 22 388 15 c 128,-1,81
 342 8 342 8 291 8 c 0,82,83
 255 8 255 8 220 12 c 128,-1,84
 185 16 185 16 158 25 c 128,-1,85
 131 34 131 34 115 48.5 c 128,-1,86
 99 63 99 63 100 84 c 0,87,88
 102 116 102 116 102.5 144 c 128,-1,89
 103 172 103 172 100.5 199 c 128,-1,90
 98 226 98 226 93 254.5 c 128,-1,91
 88 283 88 283 80 314 c 0,92,93
 77 328 77 328 64 338.5 c 128,-1,94
 51 349 51 349 37 357 c 0,95,96
 20 366 20 366 0 373 c 1,0,-1
EndSplineSet
Validated: 33
EndChar

StartChar: comma
Encoding: 54 44 54
Width: 268
GlyphClass: 2
Flags: W
LayerCount: 2
Fore
SplineSet
54 56 m 0,0,1
 54 61 54 61 52 67 c 0,2,3
 51 83 51 83 48 84.5 c 128,-1,4
 45 86 45 86 30 87 c 0,5,6
 22 88 22 88 18.5 93.5 c 128,-1,7
 15 99 15 99 15 107 c 0,8,9
 15 116 15 116 19 128 c 128,-1,10
 23 140 23 140 30.5 151 c 128,-1,11
 38 162 38 162 47.5 169.5 c 128,-1,12
 57 177 57 177 67 177 c 0,13,14
 84 177 84 177 94.5 171 c 128,-1,15
 105 165 105 165 111 155.5 c 128,-1,16
 117 146 117 146 119 132.5 c 128,-1,17
 121 119 121 119 121 104 c 256,18,19
 121 89 121 89 114.5 67.5 c 128,-1,20
 108 46 108 46 98.5 24 c 128,-1,21
 89 2 89 2 77.5 -18 c 128,-1,22
 66 -38 66 -38 57 -50 c 0,23,24
 49 -60 49 -60 40 -72 c 128,-1,25
 31 -84 31 -84 16 -84 c 0,26,27
 8 -84 8 -84 4.5 -77.5 c 128,-1,28
 1 -71 1 -71 1 -64 c 0,29,30
 1 -58 1 -58 4 -48 c 128,-1,31
 7 -38 7 -38 11.5 -28.5 c 128,-1,32
 16 -19 16 -19 21.5 -10.5 c 128,-1,33
 27 -2 27 -2 32 1 c 0,34,35
 32 3 32 3 35 10 c 128,-1,36
 38 17 38 17 42.5 26 c 128,-1,37
 47 35 47 35 50.5 43.5 c 128,-1,38
 54 52 54 52 54 56 c 0,0,1
EndSplineSet
Validated: 1
EndChar

StartChar: question
Encoding: 55 63 55
Width: 434
GlyphClass: 2
Flags: W
LayerCount: 2
Fore
SplineSet
192 446 m 0,0,1
 173 446 173 446 153.5 442.5 c 128,-1,2
 134 439 134 439 115.5 434.5 c 128,-1,3
 97 430 97 430 80 426 c 128,-1,4
 63 422 63 422 47 422 c 0,5,6
 39 422 39 422 36 425.5 c 128,-1,7
 33 429 33 429 33 434 c 0,8,9
 33 445 33 445 44.5 457.5 c 128,-1,10
 56 470 56 470 72 475 c 0,11,12
 77 477 77 477 83 477 c 128,-1,13
 89 477 89 477 95 478 c 0,14,15
 101 480 101 480 107.5 481 c 128,-1,16
 114 482 114 482 120 483 c 0,17,18
 148 490 148 490 171.5 495 c 128,-1,19
 195 500 195 500 226 500 c 0,20,21
 265 500 265 500 294 494 c 128,-1,22
 323 488 323 488 341 464 c 0,23,24
 351 450 351 450 360.5 435 c 128,-1,25
 370 420 370 420 370 405 c 0,26,27
 370 382 370 382 353.5 360 c 128,-1,28
 337 338 337 338 313.5 317 c 128,-1,29
 290 296 290 296 264 276.5 c 128,-1,30
 238 257 238 257 219 239 c 0,31,32
 217 237 217 237 211.5 231 c 128,-1,33
 206 225 206 225 206 223 c 0,34,35
 206 213 206 213 209 204 c 128,-1,36
 212 195 212 195 212 185 c 0,37,38
 212 179 212 179 208.5 171 c 128,-1,39
 205 163 205 163 198.5 155.5 c 128,-1,40
 192 148 192 148 183 142.5 c 128,-1,41
 174 137 174 137 163 137 c 0,42,43
 149 137 149 137 149 151 c 1,44,-1
 150 154 l 1,45,-1
 150 156 l 2,46,47
 150 165 150 165 147 174.5 c 128,-1,48
 144 184 144 184 144 194 c 0,49,50
 144 211 144 211 156 228 c 128,-1,51
 168 245 168 245 186.5 262 c 128,-1,52
 205 279 205 279 226 295.5 c 128,-1,53
 247 312 247 312 265.5 326.5 c 128,-1,54
 284 341 284 341 296 353.5 c 128,-1,55
 308 366 308 366 308 375 c 0,56,57
 308 382 308 382 303 390.5 c 128,-1,58
 298 399 298 399 293 405 c 0,59,60
 284 419 284 419 275.5 427 c 128,-1,61
 267 435 267 435 256 439 c 128,-1,62
 245 443 245 443 230 444.5 c 128,-1,63
 215 446 215 446 192 446 c 0,0,1
161 60 m 1,64,65
 168 69 168 69 177 69 c 0,66,67
 182 69 182 69 184.5 64.5 c 128,-1,68
 187 60 187 60 187 56 c 0,69,70
 187 53 187 53 185 47 c 1,71,72
 189 44 189 44 189.5 38.5 c 128,-1,73
 190 33 190 33 190 28 c 0,74,75
 190 19 190 19 187.5 7 c 128,-1,76
 185 -5 185 -5 180 -16.5 c 128,-1,77
 175 -28 175 -28 167 -36 c 128,-1,78
 159 -44 159 -44 148 -44 c 0,79,80
 135 -44 135 -44 132.5 -37.5 c 128,-1,81
 130 -31 130 -31 125 -25 c 0,82,83
 122 -20 122 -20 119.5 -18.5 c 128,-1,84
 117 -17 117 -17 117 -10 c 2,85,-1
 117 2 l 2,86,87
 117 22 117 22 130.5 37 c 128,-1,88
 144 52 144 52 161 60 c 1,64,65
EndSplineSet
Validated: 1
EndChar

StartChar: parenleft
Encoding: 56 40 56
Width: 300
GlyphClass: 2
Flags: W
LayerCount: 2
Fore
SplineSet
31 269 m 0,0,1
 31 296 31 296 33 333 c 128,-1,2
 35 370 35 370 39 412 c 128,-1,3
 43 454 43 454 49 498 c 128,-1,4
 55 542 55 542 63 582.5 c 128,-1,5
 71 623 71 623 80.5 657.5 c 128,-1,6
 90 692 90 692 101 715 c 0,7,8
 114 741 114 741 131.5 762.5 c 128,-1,9
 149 784 149 784 169 804 c 0,10,11
 173 809 173 809 179 815.5 c 128,-1,12
 185 822 185 822 192 828 c 128,-1,13
 199 834 199 834 206 838 c 128,-1,14
 213 842 213 842 219 842 c 0,15,16
 227 842 227 842 230.5 835 c 128,-1,17
 234 828 234 828 234 822 c 0,18,19
 234 800 234 800 223 784 c 128,-1,20
 212 768 212 768 197 754 c 128,-1,21
 182 740 182 740 168 726 c 128,-1,22
 154 712 154 712 148 694 c 0,23,24
 135 656 135 656 125.5 605.5 c 128,-1,25
 116 555 116 555 109.5 501 c 128,-1,26
 103 447 103 447 100 395.5 c 128,-1,27
 97 344 97 344 97 303 c 0,28,29
 97 287 97 287 97.5 271 c 128,-1,30
 98 255 98 255 103 240 c 0,31,32
 108 220 108 220 124 193.5 c 128,-1,33
 140 167 140 167 159.5 140 c 128,-1,34
 179 113 179 113 198.5 87.5 c 128,-1,35
 218 62 218 62 231 43 c 0,36,37
 237 35 237 35 245.5 20.5 c 128,-1,38
 254 6 254 6 262 -10 c 128,-1,39
 270 -26 270 -26 276 -41.5 c 128,-1,40
 282 -57 282 -57 282 -66 c 256,41,42
 282 -75 282 -75 278 -87 c 128,-1,43
 274 -99 274 -99 266.5 -110 c 128,-1,44
 259 -121 259 -121 250 -128.5 c 128,-1,45
 241 -136 241 -136 230 -136 c 0,46,47
 225 -136 225 -136 222 -133 c 128,-1,48
 219 -130 219 -130 217 -125 c 0,49,50
 208 -102 208 -102 198.5 -81.5 c 128,-1,51
 189 -61 189 -61 175 -40 c 0,52,53
 149 2 149 2 118 40.5 c 128,-1,54
 87 79 87 79 62 122 c 0,55,56
 40 159 40 159 35.5 192.5 c 128,-1,57
 31 226 31 226 31 269 c 0,0,1
EndSplineSet
Validated: 1
EndChar

StartChar: hyphen
Encoding: 57 45 57
Width: 322
GlyphClass: 2
Flags: W
LayerCount: 2
Fore
SplineSet
85 263 m 0,0,1
 79 263 79 263 63.5 262 c 128,-1,2
 48 261 48 261 44 259 c 0,3,4
 34 252 34 252 26 252 c 256,5,6
 18 252 18 252 14.5 258.5 c 128,-1,7
 11 265 11 265 11 272 c 0,8,9
 11 285 11 285 16 297.5 c 128,-1,10
 21 310 21 310 30 320.5 c 128,-1,11
 39 331 39 331 50.5 338.5 c 128,-1,12
 62 346 62 346 74 349 c 0,13,14
 84 351 84 351 93.5 352 c 128,-1,15
 103 353 103 353 114 353 c 0,16,17
 122 353 122 353 129 352.5 c 128,-1,18
 136 352 136 352 144 351 c 0,19,20
 154 349 154 349 162 343 c 128,-1,21
 170 337 170 337 179 337 c 0,22,23
 185 337 185 337 191 338 c 128,-1,24
 197 339 197 339 204 339 c 0,25,26
 219 339 219 339 231 333 c 128,-1,27
 243 327 243 327 259 327 c 0,28,29
 270 327 270 327 281.5 328 c 128,-1,30
 293 329 293 329 305 329 c 0,31,32
 313 329 313 329 316 322.5 c 128,-1,33
 319 316 319 316 319 309 c 0,34,35
 319 300 319 300 315 288 c 128,-1,36
 311 276 311 276 304 265.5 c 128,-1,37
 297 255 297 255 288 247.5 c 128,-1,38
 279 240 279 240 269 239 c 0,39,40
 258 238 258 238 246 237.5 c 128,-1,41
 234 237 234 237 223 237 c 0,42,43
 215 237 215 237 207.5 237 c 128,-1,44
 200 237 200 237 193 240 c 0,45,46
 187 242 187 242 181.5 245.5 c 128,-1,47
 176 249 176 249 170 249 c 0,48,49
 162 249 162 249 155.5 248 c 128,-1,50
 149 247 149 247 141 247 c 256,51,52
 133 247 133 247 127 249.5 c 128,-1,53
 121 252 121 252 115 255 c 128,-1,54
 109 258 109 258 102 260.5 c 128,-1,55
 95 263 95 263 85 263 c 0,0,1
EndSplineSet
Validated: 1
EndChar

StartChar: plus
Encoding: 58 43 58
Width: 572
GlyphClass: 2
Flags: W
LayerCount: 2
Fore
SplineSet
271 483 m 2,0,1
 271 495 271 495 274.5 507 c 128,-1,2
 278 519 278 519 279 531 c 0,3,4
 280 540 280 540 284.5 552 c 128,-1,5
 289 564 289 564 295.5 575 c 128,-1,6
 302 586 302 586 311 593.5 c 128,-1,7
 320 601 320 601 331 601 c 0,8,9
 339 601 339 601 342.5 594.5 c 128,-1,10
 346 588 346 588 346 582 c 0,11,12
 346 568 346 568 341.5 556 c 128,-1,13
 337 544 337 544 337 531 c 2,14,-1
 337 442 l 2,15,16
 337 432 337 432 340.5 423 c 128,-1,17
 344 414 344 414 346 405 c 0,18,19
 349 394 349 394 350 382.5 c 128,-1,20
 351 371 351 371 352 359 c 1,21,22
 366 358 366 358 378.5 358 c 128,-1,23
 391 358 391 358 405 358 c 256,24,25
 419 358 419 358 430 359 c 128,-1,26
 441 360 441 360 454 365 c 0,27,28
 459 367 459 367 464.5 369 c 128,-1,29
 470 371 470 371 475 372 c 0,30,31
 484 374 484 374 493.5 375.5 c 128,-1,32
 503 377 503 377 511 380 c 0,33,34
 518 382 518 382 524 386.5 c 128,-1,35
 530 391 530 391 538 391 c 256,36,37
 546 391 546 391 549 384 c 128,-1,38
 552 377 552 377 552 371 c 0,39,40
 552 342 552 342 533 321 c 128,-1,41
 514 300 514 300 488 292 c 0,42,43
 479 288 479 288 469 287 c 128,-1,44
 459 286 459 286 449 283 c 0,45,46
 436 280 436 280 428 277 c 128,-1,47
 420 274 420 274 412.5 272 c 128,-1,48
 405 270 405 270 395.5 269 c 128,-1,49
 386 268 386 268 371 268 c 2,50,-1
 347 268 l 1,51,52
 348 245 348 245 353.5 222.5 c 128,-1,53
 359 200 359 200 359 177 c 0,54,55
 359 168 359 168 355 156 c 128,-1,56
 351 144 351 144 343.5 133 c 128,-1,57
 336 122 336 122 327 114.5 c 128,-1,58
 318 107 318 107 307 107 c 0,59,60
 300 107 300 107 297 112.5 c 128,-1,61
 294 118 294 118 292.5 125.5 c 128,-1,62
 291 133 291 133 291 141 c 128,-1,63
 291 149 291 149 290 153 c 0,64,65
 288 171 288 171 284.5 188.5 c 128,-1,66
 281 206 281 206 281 225 c 0,67,68
 281 236 281 236 282 248 c 128,-1,69
 283 260 283 260 284 271 c 1,70,71
 265 273 265 273 246.5 275 c 128,-1,72
 228 277 228 277 210 279 c 0,73,74
 198 281 198 281 185.5 283 c 128,-1,75
 173 285 173 285 162 289 c 0,76,77
 157 291 157 291 152.5 293.5 c 128,-1,78
 148 296 148 296 143 297 c 0,79,80
 119 301 119 301 93.5 299.5 c 128,-1,81
 68 298 68 298 44 300 c 0,82,83
 36 301 36 301 32.5 307 c 128,-1,84
 29 313 29 313 29 320 c 0,85,86
 29 329 29 329 33 341 c 128,-1,87
 37 353 37 353 44.5 364.5 c 128,-1,88
 52 376 52 376 61.5 383.5 c 128,-1,89
 71 391 71 391 81 391 c 0,90,91
 106 391 106 391 131.5 390 c 128,-1,92
 157 389 157 389 182 387 c 0,93,94
 189 386 189 386 193.5 383.5 c 128,-1,95
 198 381 198 381 203 379 c 0,96,97
 210 376 210 376 217.5 375 c 128,-1,98
 225 374 225 374 233 372 c 0,99,100
 243 370 243 370 253 368.5 c 128,-1,101
 263 367 263 367 273 365 c 1,102,103
 272 372 272 372 271.5 378 c 128,-1,104
 271 384 271 384 271 391 c 2,105,-1
 271 483 l 2,0,1
EndSplineSet
Validated: 33
EndChar

StartChar: asterisk
Encoding: 59 42 59
Width: 551
GlyphClass: 2
Flags: W
LayerCount: 2
Fore
SplineSet
254 671 m 0,0,1
 254 680 254 680 249 688.5 c 128,-1,2
 244 697 244 697 244 707 c 0,3,4
 244 716 244 716 248.5 728 c 128,-1,5
 253 740 253 740 260 751 c 128,-1,6
 267 762 267 762 276.5 769.5 c 128,-1,7
 286 777 286 777 296 777 c 0,8,9
 303 777 303 777 307.5 769.5 c 128,-1,10
 312 762 312 762 315 751.5 c 128,-1,11
 318 741 318 741 319 730.5 c 128,-1,12
 320 720 320 720 320 715 c 2,13,-1
 319 707 l 1,14,-1
 319 703 l 2,15,16
 319 700 319 700 322.5 691.5 c 128,-1,17
 326 683 326 683 328 680 c 0,18,19
 331 671 331 671 333.5 654.5 c 128,-1,20
 336 638 336 638 338.5 621 c 128,-1,21
 341 604 341 604 343.5 590 c 128,-1,22
 346 576 346 576 350 570 c 1,23,-1
 353 570 l 1,24,25
 362 579 362 579 375 579 c 2,26,-1
 529 579 l 2,27,28
 537 579 537 579 540 572.5 c 128,-1,29
 543 566 543 566 543 560 c 0,30,31
 543 551 543 551 539 539 c 128,-1,32
 535 527 535 527 528 515.5 c 128,-1,33
 521 504 521 504 511.5 496.5 c 128,-1,34
 502 489 502 489 492 489 c 2,35,-1
 425 489 l 1,36,37
 436 478 436 478 450 463.5 c 128,-1,38
 464 449 464 449 464 432 c 0,39,40
 464 423 464 423 460 411 c 128,-1,41
 456 399 456 399 449 388 c 128,-1,42
 442 377 442 377 432.5 369.5 c 128,-1,43
 423 362 423 362 413 362 c 0,44,45
 405 362 405 362 403 367 c 128,-1,46
 401 372 401 372 397 377 c 0,47,48
 395 382 395 382 392 385 c 128,-1,49
 389 388 389 388 385 392 c 0,50,51
 375 403 375 403 364 412 c 128,-1,52
 353 421 353 421 342 432 c 0,53,54
 336 438 336 438 332 445.5 c 128,-1,55
 328 453 328 453 323 460 c 0,56,57
 317 468 317 468 312 472.5 c 128,-1,58
 307 477 307 477 302 481 c 1,59,-1
 300 481 l 1,60,-1
 298 481 l 1,61,62
 296 477 296 477 293 473.5 c 128,-1,63
 290 470 290 470 288 467 c 0,64,65
 284 462 284 462 282 456.5 c 128,-1,66
 280 451 280 451 277 446 c 0,67,68
 268 432 268 432 258 419 c 128,-1,69
 248 406 248 406 237 393 c 0,70,71
 230 385 230 385 223.5 374.5 c 128,-1,72
 217 364 217 364 209.5 354 c 128,-1,73
 202 344 202 344 193 337.5 c 128,-1,74
 184 331 184 331 171 331 c 0,75,76
 163 331 163 331 159.5 337.5 c 128,-1,77
 156 344 156 344 156 351 c 0,78,79
 156 364 156 364 162 377.5 c 128,-1,80
 168 391 168 391 176 401 c 0,81,82
 178 404 178 404 180.5 406 c 128,-1,83
 183 408 183 408 185 411 c 0,84,85
 194 422 194 422 201.5 433 c 128,-1,86
 209 444 209 444 220 455 c 0,87,88
 223 461 223 461 227 466.5 c 128,-1,89
 231 472 231 472 236 478 c 1,90,91
 228 476 228 476 219.5 475.5 c 128,-1,92
 211 475 211 475 203 475 c 0,93,94
 176 475 176 475 144.5 474.5 c 128,-1,95
 113 474 113 474 87 476 c 0,96,97
 79 477 79 477 76 483 c 128,-1,98
 73 489 73 489 73 496 c 0,99,100
 73 505 73 505 77 517 c 128,-1,101
 81 529 81 529 88.5 540 c 128,-1,102
 96 551 96 551 105.5 558.5 c 128,-1,103
 115 566 115 566 125 566 c 0,104,105
 146 566 146 566 167 565.5 c 128,-1,106
 188 565 188 565 209 565 c 0,107,108
 223 565 223 565 237.5 565 c 128,-1,109
 252 565 252 565 265 569 c 0,110,111
 267 569 267 569 269 569.5 c 128,-1,112
 271 570 271 570 273 570 c 1,113,114
 272 587 272 587 267 603 c 0,115,116
 264 616 264 616 258 627.5 c 128,-1,117
 252 639 252 639 252 653 c 2,118,-1
 252 657 l 1,119,-1
 253 666 l 2,120,121
 253 668 253 668 253.5 668.5 c 128,-1,122
 254 669 254 669 254 671 c 0,0,1
EndSplineSet
Validated: 33
EndChar

StartChar: asciicircum
Encoding: 60 94 60
Width: 572
GlyphClass: 2
Flags: W
LayerCount: 2
Fore
SplineSet
276 560 m 1,0,1
 268 544 268 544 259.5 527.5 c 128,-1,2
 251 511 251 511 240 497 c 0,3,4
 234 488 234 488 227 480 c 128,-1,5
 220 472 220 472 214 463 c 0,6,7
 205 448 205 448 190 413.5 c 128,-1,8
 175 379 175 379 157 343 c 128,-1,9
 139 307 139 307 120 279.5 c 128,-1,10
 101 252 101 252 83 252 c 0,11,12
 75 252 75 252 72 258.5 c 128,-1,13
 69 265 69 265 69 272 c 0,14,15
 69 285 69 285 74 298 c 0,16,17
 80 312 80 312 88.5 324.5 c 128,-1,18
 97 337 97 337 104 351 c 0,19,20
 121 386 121 386 136 421 c 128,-1,21
 151 456 151 456 171 489 c 0,22,23
 179 502 179 502 188 512.5 c 128,-1,24
 197 523 197 523 205 535 c 0,25,26
 220 558 220 558 230.5 582 c 128,-1,27
 241 606 241 606 249 632 c 0,28,29
 252 641 252 641 256.5 652 c 128,-1,30
 261 663 261 663 267.5 672 c 128,-1,31
 274 681 274 681 283 687.5 c 128,-1,32
 292 694 292 694 303 694 c 0,33,34
 313 694 313 694 317.5 689 c 128,-1,35
 322 684 322 684 324 677 c 128,-1,36
 326 670 326 670 326.5 661.5 c 128,-1,37
 327 653 327 653 330 647 c 0,38,39
 335 635 335 635 343.5 624.5 c 128,-1,40
 352 614 352 614 360 603 c 128,-1,41
 368 592 368 592 374.5 580.5 c 128,-1,42
 381 569 381 569 382 555 c 1,43,44
 402 528 402 528 420.5 501 c 128,-1,45
 439 474 439 474 456 445 c 0,46,47
 463 434 463 434 468.5 422.5 c 128,-1,48
 474 411 474 411 482 400 c 0,49,50
 488 393 488 393 498.5 384.5 c 128,-1,51
 509 376 509 376 518.5 367 c 128,-1,52
 528 358 528 358 535.5 349 c 128,-1,53
 543 340 543 340 543 331 c 256,54,55
 543 322 543 322 539 310 c 128,-1,56
 535 298 535 298 528 287 c 128,-1,57
 521 276 521 276 511.5 268.5 c 128,-1,58
 502 261 502 261 492 261 c 0,59,60
 488 261 488 261 482 265 c 0,61,62
 468 279 468 279 453 292.5 c 128,-1,63
 438 306 438 306 425 320 c 2,64,-1
 419 329 l 2,65,66
 396 367 396 367 372.5 403.5 c 128,-1,67
 349 440 349 440 323 477 c 0,68,69
 315 488 315 488 315 500 c 0,70,71
 315 504 315 504 310 512 c 128,-1,72
 305 520 305 520 298 529.5 c 128,-1,73
 291 539 291 539 285 547.5 c 128,-1,74
 279 556 279 556 276 560 c 1,0,1
EndSplineSet
Validated: 1
EndChar

StartChar: slash
Encoding: 61 47 61
Width: 372
GlyphClass: 2
Flags: W
LayerCount: 2
Fore
SplineSet
293 670 m 0,0,1
 293 679 293 679 297 691.5 c 128,-1,2
 301 704 301 704 307.5 715.5 c 128,-1,3
 314 727 314 727 323.5 734.5 c 128,-1,4
 333 742 333 742 344 742 c 0,5,6
 353 742 353 742 356 734 c 128,-1,7
 359 726 359 726 359 719 c 0,8,9
 359 703 359 703 355 687.5 c 128,-1,10
 351 672 351 672 345 657 c 128,-1,11
 339 642 339 642 332.5 627 c 128,-1,12
 326 612 326 612 322 597 c 0,13,14
 317 580 317 580 315 562 c 128,-1,15
 313 544 313 544 308 526 c 0,16,17
 305 513 305 513 300 500.5 c 128,-1,18
 295 488 295 488 290 475 c 0,19,20
 279 442 279 442 272 411 c 0,21,22
 260 366 260 366 249.5 321 c 128,-1,23
 239 276 239 276 222 232 c 0,24,25
 214 212 214 212 204 193 c 128,-1,26
 194 174 194 174 183 155 c 0,27,28
 177 145 177 145 170.5 134.5 c 128,-1,29
 164 124 164 124 160 113 c 0,30,31
 158 107 158 107 157.5 100.5 c 128,-1,32
 157 94 157 94 155 88 c 0,33,34
 150 70 150 70 139.5 57 c 128,-1,35
 129 44 129 44 118 30 c 0,36,37
 110 21 110 21 101 7 c 128,-1,38
 92 -7 92 -7 74 -7 c 0,39,40
 66 -7 66 -7 63 -0.5 c 128,-1,41
 60 6 60 6 60 13 c 0,42,43
 60 33 60 33 71 51.5 c 128,-1,44
 82 70 82 70 95 85 c 1,45,46
 98 103 98 103 107 121 c 128,-1,47
 116 139 116 139 127 157 c 128,-1,48
 138 175 138 175 148.5 193 c 128,-1,49
 159 211 159 211 165 229 c 0,50,51
 181 278 181 278 193.5 328 c 128,-1,52
 206 378 206 378 220 427 c 0,53,54
 225 447 225 447 233 467 c 128,-1,55
 241 487 241 487 246 507 c 0,56,57
 251 525 251 525 253 543.5 c 128,-1,58
 255 562 255 562 260 580 c 0,59,60
 267 603 267 603 277 625 c 128,-1,61
 287 647 287 647 293 670 c 0,0,1
EndSplineSet
Validated: 1
EndChar

StartChar: backslash
Encoding: 62 92 62
Width: 372
GlyphClass: 2
Flags: W
LayerCount: 2
Fore
SplineSet
351 -21 m 0,0,1
 342 -21 342 -21 330 -3.5 c 128,-1,2
 318 14 318 14 307 36.5 c 128,-1,3
 296 59 296 59 287 81 c 128,-1,4
 278 103 278 103 275 112 c 0,5,6
 262 145 262 145 249.5 178 c 128,-1,7
 237 211 237 211 225 244 c 0,8,9
 216 270 216 270 206.5 295 c 128,-1,10
 197 320 197 320 185 343 c 0,11,12
 159 396 159 396 125 444.5 c 128,-1,13
 91 493 91 493 67 548 c 0,14,15
 59 565 59 565 52.5 584 c 128,-1,16
 46 603 46 603 31 617 c 0,17,18
 25 623 25 623 18.5 627.5 c 128,-1,19
 12 632 12 632 5 637 c 0,20,21
 -2 644 -2 644 -2 654 c 0,22,23
 -2 663 -2 663 2 675 c 128,-1,24
 6 687 6 687 13.5 698.5 c 128,-1,25
 21 710 21 710 30.5 717.5 c 128,-1,26
 40 725 40 725 50 725 c 0,27,28
 54 725 54 725 57 722 c 0,29,30
 76 710 76 710 87 699.5 c 128,-1,31
 98 689 98 689 104.5 678 c 128,-1,32
 111 667 111 667 116 653 c 128,-1,33
 121 639 121 639 129 620 c 0,34,35
 136 600 136 600 149 579 c 0,36,37
 176 529 176 529 208 483 c 128,-1,38
 240 437 240 437 261 384 c 0,39,40
 279 338 279 338 296 292.5 c 128,-1,41
 313 247 313 247 330 202 c 0,42,43
 341 172 341 172 353.5 141 c 128,-1,44
 366 110 366 110 383 83 c 0,45,46
 388 74 388 74 395.5 67.5 c 128,-1,47
 403 61 403 61 403 50 c 0,48,49
 403 41 403 41 398.5 29 c 128,-1,50
 394 17 394 17 387 5.5 c 128,-1,51
 380 -6 380 -6 370.5 -13.5 c 128,-1,52
 361 -21 361 -21 351 -21 c 0,0,1
EndSplineSet
Validated: 1
EndChar

StartChar: exclam
Encoding: 63 33 63
Width: 269
GlyphClass: 2
Flags: W
LayerCount: 2
Fore
SplineSet
154 364 m 1,0,1
 146 364 146 364 137 367 c 0,2,3
 126 370 126 370 122.5 375.5 c 128,-1,4
 119 381 119 381 120 386 c 0,5,6
 123 398 123 398 122.5 410 c 128,-1,7
 122 422 122 422 120 434.5 c 128,-1,8
 118 447 118 447 117 459 c 128,-1,9
 116 471 116 471 119 483 c 0,10,11
 124 500 124 500 138.5 507.5 c 128,-1,12
 153 515 153 515 175 523 c 0,13,14
 187 528 187 528 201 533.5 c 128,-1,15
 215 539 215 539 232 539 c 0,16,17
 243 539 243 539 255 536 c 0,18,19
 265 533 265 533 269.5 528.5 c 128,-1,20
 274 524 274 524 275 519 c 128,-1,21
 276 514 276 514 275 508.5 c 128,-1,22
 274 503 274 503 273 500 c 0,23,24
 271 495 271 495 270 490.5 c 128,-1,25
 269 486 269 486 267 481 c 1,26,27
 272 477 272 477 273 472 c 0,28,29
 275 469 275 469 274.5 457.5 c 128,-1,30
 274 446 274 446 272 433 c 128,-1,31
 270 420 270 420 268 408 c 128,-1,32
 266 396 266 396 265 392 c 0,33,34
 261 379 261 379 255 367.5 c 128,-1,35
 249 356 249 356 245 343 c 0,36,37
 243 334 243 334 243 325 c 128,-1,38
 243 316 243 316 242 307 c 0,39,40
 240 285 240 285 236 266 c 0,41,42
 233 254 233 254 230.5 242 c 128,-1,43
 228 230 228 230 222 219 c 128,-1,44
 216 208 216 208 205 199.5 c 128,-1,45
 194 191 194 191 173 187 c 0,46,47
 165 185 165 185 155.5 184.5 c 128,-1,48
 146 184 146 184 135 187 c 256,49,50
 124 190 124 190 120 196 c 128,-1,51
 116 202 116 202 118 207 c 0,52,53
 123 225 123 225 129 243 c 128,-1,54
 135 261 135 261 137 280 c 0,55,56
 139 294 139 294 139 307 c 128,-1,57
 139 320 139 320 143 333 c 0,58,59
 145 341 145 341 148 348.5 c 128,-1,60
 151 356 151 356 154 364 c 1,0,1
173 128 m 0,61,62
 182 128 182 128 188.5 121 c 128,-1,63
 195 114 195 114 196 105 c 1,64,65
 203 99 203 99 205 88 c 1,66,67
 215 86 215 86 217 77 c 128,-1,68
 219 68 219 68 219 60 c 0,69,70
 219 39 219 39 210.5 19 c 128,-1,71
 202 -1 202 -1 184 -14 c 0,72,73
 180 -17 180 -17 175.5 -19 c 128,-1,74
 171 -21 171 -21 167 -23 c 0,75,76
 165 -25 165 -25 164 -26.5 c 128,-1,77
 163 -28 163 -28 161 -30 c 0,78,79
 144 -47 144 -47 120 -47 c 0,80,81
 101 -47 101 -47 95.5 -38 c 128,-1,82
 90 -29 90 -29 90 -12 c 0,83,84
 90 0 90 0 90 12.5 c 128,-1,85
 90 25 90 25 92 36 c 0,86,87
 97 56 97 56 104 64.5 c 128,-1,88
 111 73 111 73 123 89 c 0,89,90
 132 101 132 101 143.5 114.5 c 128,-1,91
 155 128 155 128 173 128 c 0,61,62
EndSplineSet
Validated: 1
EndChar

StartChar: semicolon
Encoding: 64 59 64
Width: 268
GlyphClass: 2
Flags: W
LayerCount: 2
Fore
SplineSet
82 472 m 1,0,1
 95 482 95 482 106 482 c 0,2,3
 114 482 114 482 121 472.5 c 128,-1,4
 128 463 128 463 133.5 450 c 128,-1,5
 139 437 139 437 142.5 425 c 128,-1,6
 146 413 146 413 146 407 c 0,7,8
 146 389 146 389 145 373 c 128,-1,9
 144 357 144 357 139.5 343 c 128,-1,10
 135 329 135 329 125 317.5 c 128,-1,11
 115 306 115 306 96 297 c 0,12,13
 90 294 90 294 83.5 291 c 128,-1,14
 77 288 77 288 69 288 c 0,15,16
 48 288 48 288 27 297 c 0,17,18
 14 302 14 302 7.5 311 c 128,-1,19
 1 320 1 320 -1 331 c 128,-1,20
 -3 342 -3 342 -2.5 354.5 c 128,-1,21
 -2 367 -2 367 -2 379 c 0,22,23
 -2 385 -2 385 -1.5 391 c 128,-1,24
 -1 397 -1 397 0 403 c 0,25,26
 2 412 2 412 7 424 c 128,-1,27
 12 436 12 436 19.5 446.5 c 128,-1,28
 27 457 27 457 36 464.5 c 128,-1,29
 45 472 45 472 55 472 c 2,30,-1
 82 472 l 1,0,1
55 -163 m 0,31,32
 55 -160 55 -160 55.5 -157 c 128,-1,33
 56 -154 56 -154 56 -151 c 1,34,35
 49 -161 49 -161 40.5 -167.5 c 128,-1,36
 32 -174 32 -174 23 -174 c 0,37,38
 15 -174 15 -174 11.5 -167.5 c 128,-1,39
 8 -161 8 -161 8 -155 c 2,40,-1
 8 -119 l 2,41,42
 8 -113 8 -113 10.5 -107 c 128,-1,43
 13 -101 13 -101 13 -95 c 0,44,45
 13 -87 13 -87 12.5 -78.5 c 128,-1,46
 12 -70 12 -70 12 -62 c 0,47,48
 12 -50 12 -50 16 -33.5 c 128,-1,49
 20 -17 20 -17 27.5 -3 c 128,-1,50
 35 11 35 11 47 21 c 128,-1,51
 59 31 59 31 74 31 c 0,52,53
 81 31 81 31 89.5 30.5 c 128,-1,54
 98 30 98 30 105.5 28 c 128,-1,55
 113 26 113 26 118 20.5 c 128,-1,56
 123 15 123 15 123 6 c 256,57,58
 123 -3 123 -3 119.5 -14 c 128,-1,59
 116 -25 116 -25 110 -35 c 128,-1,60
 104 -45 104 -45 96 -52.5 c 128,-1,61
 88 -60 88 -60 79 -63 c 1,62,63
 78 -68 78 -68 76 -73.5 c 128,-1,64
 74 -79 74 -79 74 -84 c 0,65,66
 74 -91 74 -91 74.5 -97.5 c 128,-1,67
 75 -104 75 -104 74 -111 c 1,68,69
 78 -105 78 -105 81.5 -99 c 128,-1,70
 85 -93 85 -93 88 -88 c 0,71,72
 96 -70 96 -70 107 -59 c 0,73,74
 110 -56 110 -56 113.5 -54 c 128,-1,75
 117 -52 117 -52 119 -49 c 0,76,77
 124 -43 124 -43 127 -35.5 c 128,-1,78
 130 -28 130 -28 135 -21 c 0,79,80
 137 -17 137 -17 140.5 -14 c 128,-1,81
 144 -11 144 -11 146 -7 c 0,82,83
 148 -4 148 -4 150 3 c 128,-1,84
 152 10 152 10 153.5 17.5 c 128,-1,85
 155 25 155 25 156 32.5 c 128,-1,86
 157 40 157 40 157 44 c 0,87,88
 157 54 157 54 161 67 c 128,-1,89
 165 80 165 80 171.5 91 c 128,-1,90
 178 102 178 102 187.5 110 c 128,-1,91
 197 118 197 118 208 118 c 0,92,93
 218 118 218 118 220.5 109.5 c 128,-1,94
 223 101 223 101 223 94 c 0,95,96
 223 62 223 62 211.5 22 c 128,-1,97
 200 -18 200 -18 183 -44 c 0,98,99
 180 -49 180 -49 176 -52.5 c 128,-1,100
 172 -56 172 -56 169 -61 c 0,101,102
 163 -69 163 -69 159.5 -77.5 c 128,-1,103
 156 -86 156 -86 150 -94 c 0,104,105
 148 -97 148 -97 145 -100.5 c 128,-1,106
 142 -104 142 -104 140 -107 c 0,107,108
 136 -112 136 -112 134 -117 c 128,-1,109
 132 -122 132 -122 128 -127 c 0,110,111
 125 -131 125 -131 121 -134 c 128,-1,112
 117 -137 117 -137 115 -141 c 0,113,114
 107 -153 107 -153 96.5 -168 c 128,-1,115
 86 -183 86 -183 70 -183 c 0,116,117
 62 -183 62 -183 58.5 -176.5 c 128,-1,118
 55 -170 55 -170 55 -163 c 0,31,32
EndSplineSet
Validated: 1
EndChar

StartChar: equal
Encoding: 65 61 65
Width: 572
GlyphClass: 2
Flags: W
LayerCount: 2
Fore
SplineSet
65 415 m 2,0,1
 57 415 57 415 54 421.5 c 128,-1,2
 51 428 51 428 51 435 c 0,3,4
 51 444 51 444 55 456 c 128,-1,5
 59 468 59 468 66.5 479 c 128,-1,6
 74 490 74 490 83.5 497.5 c 128,-1,7
 93 505 93 505 103 505 c 2,8,-1
 520 505 l 2,9,10
 528 505 528 505 531.5 498.5 c 128,-1,11
 535 492 535 492 535 485 c 0,12,13
 535 476 535 476 530.5 464 c 128,-1,14
 526 452 526 452 519 441 c 128,-1,15
 512 430 512 430 502.5 422.5 c 128,-1,16
 493 415 493 415 483 415 c 2,17,-1
 65 415 l 2,0,1
17 248 m 2,18,19
 9 248 9 248 6 254.5 c 128,-1,20
 3 261 3 261 3 268 c 0,21,22
 3 277 3 277 7 289 c 128,-1,23
 11 301 11 301 18 312 c 128,-1,24
 25 323 25 323 34.5 330.5 c 128,-1,25
 44 338 44 338 54 338 c 0,26,27
 78 338 78 338 102.5 338 c 128,-1,28
 127 338 127 338 151 341 c 0,29,30
 162 343 162 343 172.5 344.5 c 128,-1,31
 183 346 183 346 194 348 c 0,32,33
 209 351 209 351 224 351.5 c 128,-1,34
 239 352 239 352 254 352 c 2,35,-1
 291 352 l 2,36,37
 327 351 327 351 363 350 c 128,-1,38
 399 349 399 349 434 348 c 0,39,40
 451 347 451 347 468 348 c 128,-1,41
 485 349 485 349 502 347 c 0,42,43
 510 346 510 346 513.5 340 c 128,-1,44
 517 334 517 334 517 327 c 0,45,46
 517 318 517 318 513 306 c 128,-1,47
 509 294 509 294 501.5 282.5 c 128,-1,48
 494 271 494 271 485 263.5 c 128,-1,49
 476 256 476 256 465 256 c 0,50,51
 405 256 405 256 345 259 c 128,-1,52
 285 262 285 262 225 262 c 0,53,54
 194 262 194 262 172 259 c 128,-1,55
 150 256 150 256 120 251 c 0,56,57
 103 249 103 249 85.5 248.5 c 128,-1,58
 68 248 68 248 51 248 c 2,59,-1
 17 248 l 2,18,19
EndSplineSet
Validated: 33
EndChar

StartChar: parenright
Encoding: 66 41 66
Width: 300
GlyphClass: 2
Flags: W
LayerCount: 2
Fore
SplineSet
193 134 m 0,0,1
 193 169 193 169 192 217 c 128,-1,2
 191 265 191 265 188 314.5 c 128,-1,3
 185 364 185 364 179.5 410.5 c 128,-1,4
 174 457 174 457 165 489 c 0,5,6
 155 522 155 522 141.5 553.5 c 128,-1,7
 128 585 128 585 113 615.5 c 128,-1,8
 98 646 98 646 82.5 676 c 128,-1,9
 67 706 67 706 52 737 c 0,10,11
 50 745 50 745 50 749 c 0,12,13
 50 758 50 758 54 770 c 128,-1,14
 58 782 58 782 65 793.5 c 128,-1,15
 72 805 72 805 81.5 812.5 c 128,-1,16
 91 820 91 820 101 820 c 0,17,18
 109 820 109 820 113 812 c 0,19,20
 124 794 124 794 133 774.5 c 128,-1,21
 142 755 142 755 152 735 c 0,22,23
 176 688 176 688 197.5 639.5 c 128,-1,24
 219 591 219 591 233 540 c 0,25,26
 239 520 239 520 241.5 498.5 c 128,-1,27
 244 477 244 477 246 456 c 0,28,29
 252 388 252 388 255.5 321 c 128,-1,30
 259 254 259 254 259 186 c 0,31,32
 259 155 259 155 258 128.5 c 128,-1,33
 257 102 257 102 252 78 c 128,-1,34
 247 54 247 54 235 30.5 c 128,-1,35
 223 7 223 7 202 -17 c 0,36,37
 189 -32 189 -32 174.5 -45 c 128,-1,38
 160 -58 160 -58 147 -73 c 0,39,40
 142 -79 142 -79 137 -88 c 128,-1,41
 132 -97 132 -97 126 -104.5 c 128,-1,42
 120 -112 120 -112 112.5 -117.5 c 128,-1,43
 105 -123 105 -123 95 -123 c 0,44,45
 87 -123 87 -123 84 -116.5 c 128,-1,46
 81 -110 81 -110 81 -103 c 0,47,48
 81 -79 81 -79 97 -55.5 c 128,-1,49
 113 -32 113 -32 132.5 -11.5 c 128,-1,50
 152 9 152 9 169 25 c 128,-1,51
 186 41 186 41 188 48 c 0,52,53
 190 56 190 56 191 67 c 128,-1,54
 192 78 192 78 192.5 90 c 128,-1,55
 193 102 193 102 193 114 c 128,-1,56
 193 126 193 126 193 134 c 0,0,1
EndSplineSet
Validated: 1
EndChar

StartChar: quotedblright
Encoding: 67 8221 67
Width: 359
GlyphClass: 2
Flags: W
LayerCount: 2
Fore
SplineSet
69 625 m 2,0,1
 69 636 69 636 68.5 646.5 c 128,-1,2
 68 657 68 657 66 668 c 0,3,4
 64 676 64 676 62 683 c 128,-1,5
 60 690 60 690 60 698 c 0,6,7
 60 707 60 707 64 719 c 128,-1,8
 68 731 68 731 75 742 c 128,-1,9
 82 753 82 753 91.5 760.5 c 128,-1,10
 101 768 101 768 111 768 c 0,11,12
 122 768 122 768 127 750 c 128,-1,13
 132 732 132 732 134 709 c 128,-1,14
 136 686 136 686 135.5 665.5 c 128,-1,15
 135 645 135 645 135 639 c 256,16,17
 135 633 135 633 135 627.5 c 128,-1,18
 135 622 135 622 134 617 c 0,19,20
 130 593 130 593 112.5 569 c 128,-1,21
 95 545 95 545 80 527 c 1,22,23
 72 510 72 510 59 495.5 c 128,-1,24
 46 481 46 481 26 481 c 0,25,26
 18 481 18 481 14.5 487.5 c 128,-1,27
 11 494 11 494 11 501 c 0,28,29
 11 509 11 509 14.5 519.5 c 128,-1,30
 18 530 18 530 24 541 c 128,-1,31
 30 552 30 552 36.5 561.5 c 128,-1,32
 43 571 43 571 49 577 c 0,33,34
 54 582 54 582 59 586 c 128,-1,35
 64 590 64 590 69 595 c 1,36,-1
 69 625 l 2,0,1
250 590 m 2,37,38
 250 610 250 610 250 630.5 c 128,-1,39
 250 651 250 651 248 671 c 0,40,41
 247 678 247 678 245.5 684.5 c 128,-1,42
 244 691 244 691 244 698 c 0,43,44
 244 707 244 707 248.5 719 c 128,-1,45
 253 731 253 731 260 742 c 128,-1,46
 267 753 267 753 276.5 760.5 c 128,-1,47
 286 768 286 768 296 768 c 0,48,49
 303 768 303 768 307 761.5 c 128,-1,50
 311 755 311 755 312.5 746 c 128,-1,51
 314 737 314 737 314.5 728 c 128,-1,52
 315 719 315 719 315 714 c 0,53,54
 316 696 316 696 316 678 c 128,-1,55
 316 660 316 660 316 641 c 0,56,57
 316 581 316 581 292 544.5 c 128,-1,58
 268 508 268 508 217 479 c 0,59,60
 208 474 208 474 201.5 466.5 c 128,-1,61
 195 459 195 459 184 459 c 0,62,63
 176 459 176 459 173 465.5 c 128,-1,64
 170 472 170 472 170 479 c 0,65,66
 170 499 170 499 182.5 520 c 128,-1,67
 195 541 195 541 212 552 c 0,68,69
 221 558 221 558 231 562.5 c 128,-1,70
 241 567 241 567 250 574 c 1,71,-1
 250 590 l 2,37,38
EndSplineSet
Validated: 33
EndChar

StartChar: quotedblleft
Encoding: 68 8220 68
Width: 359
GlyphClass: 2
Flags: W
LayerCount: 2
Fore
SplineSet
133 608 m 2,0,1
 132 604 132 604 128 597.5 c 128,-1,2
 124 591 124 591 120 584.5 c 128,-1,3
 116 578 116 578 112.5 572 c 128,-1,4
 109 566 109 566 109 564 c 0,5,6
 107 548 107 548 106.5 532 c 128,-1,7
 106 516 106 516 103.5 500.5 c 128,-1,8
 101 485 101 485 95 470.5 c 128,-1,9
 89 456 89 456 76 444 c 0,10,11
 71 439 71 439 65.5 435.5 c 128,-1,12
 60 432 60 432 52 432 c 256,13,14
 44 432 44 432 41 438.5 c 128,-1,15
 38 445 38 445 38 452 c 0,16,17
 38 462 38 462 39 477.5 c 128,-1,18
 40 493 40 493 41.5 509.5 c 128,-1,19
 43 526 43 526 45 541 c 128,-1,20
 47 556 47 556 50 565 c 0,21,22
 50 567 50 567 53 572.5 c 128,-1,23
 56 578 56 578 59 584.5 c 128,-1,24
 62 591 62 591 64.5 596.5 c 128,-1,25
 67 602 67 602 68 603 c 0,26,27
 74 618 74 618 86.5 635.5 c 128,-1,28
 99 653 99 653 110 665 c 0,29,30
 122 678 122 678 136 687 c 128,-1,31
 150 696 150 696 164 706 c 0,32,33
 172 712 172 712 178.5 718.5 c 128,-1,34
 185 725 185 725 196 725 c 1,35,36
 201 730 201 730 207.5 734 c 128,-1,37
 214 738 214 738 221 738 c 0,38,39
 229 738 229 738 232.5 731.5 c 128,-1,40
 236 725 236 725 236 718 c 0,41,42
 236 692 236 692 220.5 673 c 128,-1,43
 205 654 205 654 185 640 c 0,44,45
 178 635 178 635 171.5 629.5 c 128,-1,46
 165 624 165 624 156 625 c 1,47,-1
 133 608 l 2,0,1
262 521 m 1,48,49
 267 519 267 519 269 513 c 128,-1,50
 271 507 271 507 271 502 c 0,51,52
 271 493 271 493 267 481 c 128,-1,53
 263 469 263 469 255.5 458 c 128,-1,54
 248 447 248 447 239 439.5 c 128,-1,55
 230 432 230 432 219 432 c 0,56,57
 211 432 211 432 206.5 436.5 c 128,-1,58
 202 441 202 441 199.5 448 c 128,-1,59
 197 455 197 455 196.5 462 c 128,-1,60
 196 469 196 469 196 475 c 0,61,62
 193 482 193 482 192 489 c 128,-1,63
 191 496 191 496 191 503 c 0,64,65
 191 521 191 521 191 536 c 128,-1,66
 191 551 191 551 193.5 564.5 c 128,-1,67
 196 578 196 578 203 590.5 c 128,-1,68
 210 603 210 603 224 616 c 0,69,70
 231 622 231 622 236 626.5 c 128,-1,71
 241 631 241 631 249 636 c 0,72,73
 254 640 254 640 259 645 c 128,-1,74
 264 650 264 650 269 655 c 0,75,76
 279 664 279 664 291 671.5 c 128,-1,77
 303 679 303 679 315 685 c 0,78,79
 323 689 323 689 326 693.5 c 128,-1,80
 329 698 329 698 340 698 c 0,81,82
 348 698 348 698 351 691.5 c 128,-1,83
 354 685 354 685 354 678 c 0,84,85
 354 661 354 661 344.5 643 c 128,-1,86
 335 625 335 625 322 614 c 0,87,88
 317 611 317 611 313 608.5 c 128,-1,89
 309 606 309 606 305 603 c 0,90,91
 296 597 296 597 290.5 589.5 c 128,-1,92
 285 582 285 582 272 581 c 0,93,94
 268 578 268 578 265 574.5 c 128,-1,95
 262 571 262 571 258 567 c 0,96,97
 258 563 258 563 257.5 558 c 128,-1,98
 257 553 257 553 258 549 c 0,99,100
 259 544 259 544 261 539 c 128,-1,101
 263 534 263 534 263 529 c 2,102,-1
 262 521 l 1,48,49
EndSplineSet
Validated: 1
EndChar

StartChar: percent
Encoding: 69 37 69
Width: 831
GlyphClass: 2
Flags: W
LayerCount: 2
Fore
SplineSet
209 17 m 0,0,1
 209 38 209 38 221.5 57 c 128,-1,2
 234 76 234 76 251 87 c 2,3,-1
 266 96 l 1,4,5
 283 122 283 122 300.5 152 c 128,-1,6
 318 182 318 182 332 210 c 0,7,8
 341 228 341 228 348.5 246.5 c 128,-1,9
 356 265 356 265 365 283 c 0,10,11
 418 380 418 380 473.5 474.5 c 128,-1,12
 529 569 529 569 586 663 c 0,13,14
 596 679 596 679 605.5 695 c 128,-1,15
 615 711 615 711 627 725 c 0,16,17
 633 731 633 731 640.5 736.5 c 128,-1,18
 648 742 648 742 656 742 c 256,19,20
 664 742 664 742 667.5 735.5 c 128,-1,21
 671 729 671 729 671 722 c 0,22,23
 671 713 671 713 668 703.5 c 128,-1,24
 665 694 665 694 660 686 c 0,25,26
 656 679 656 679 651.5 672.5 c 128,-1,27
 647 666 647 666 643 659 c 0,28,29
 632 642 632 642 621.5 624.5 c 128,-1,30
 611 607 611 607 600 589 c 0,31,32
 562 526 562 526 525 462 c 128,-1,33
 488 398 488 398 451 333 c 0,34,35
 439 312 439 312 426.5 291 c 128,-1,36
 414 270 414 270 404 248 c 0,37,38
 394 228 394 228 387 211 c 128,-1,39
 380 194 380 194 369 174 c 0,40,41
 354 145 354 145 338 117.5 c 128,-1,42
 322 90 322 90 305 64 c 0,43,44
 300 56 300 56 293 49 c 128,-1,45
 286 42 286 42 282 34 c 0,46,47
 279 27 279 27 276.5 20.5 c 128,-1,48
 274 14 274 14 270 8 c 0,49,50
 265 -1 265 -1 254.5 -11 c 128,-1,51
 244 -21 244 -21 232 -21 c 0,52,53
 228 -21 228 -21 223.5 -16.5 c 128,-1,54
 219 -12 219 -12 216 -6 c 128,-1,55
 213 0 213 0 211 6.5 c 128,-1,56
 209 13 209 13 209 17 c 0,0,1
225 660 m 0,57,58
 230 660 230 660 235 660 c 128,-1,59
 240 660 240 660 245 659 c 1,60,61
 252 668 252 668 260.5 674.5 c 128,-1,62
 269 681 269 681 278 681 c 0,63,64
 289 681 289 681 293.5 674.5 c 128,-1,65
 298 668 298 668 303 659 c 1,66,67
 309 657 309 657 313 650.5 c 128,-1,68
 317 644 317 644 317 637 c 1,69,70
 328 624 328 624 341 609.5 c 128,-1,71
 354 595 354 595 361 579 c 0,72,73
 362 576 362 576 362 572.5 c 128,-1,74
 362 569 362 569 364 566 c 0,75,76
 365 564 365 564 370 557.5 c 128,-1,77
 375 551 375 551 377 549 c 0,78,79
 384 539 384 539 385.5 526 c 128,-1,80
 387 513 387 513 387 502 c 2,81,-1
 387 489 l 1,82,83
 382 449 382 449 359 414.5 c 128,-1,84
 336 380 336 380 306 354 c 0,85,86
 295 344 295 344 286.5 339 c 128,-1,87
 278 334 278 334 263 334 c 0,88,89
 242 334 242 334 216 335.5 c 128,-1,90
 190 337 190 337 171 349 c 0,91,92
 167 351 167 351 164 354 c 128,-1,93
 161 357 161 357 156 359 c 0,94,95
 147 364 147 364 143 367.5 c 128,-1,96
 139 371 139 371 138 382 c 1,97,98
 131 390 131 390 124 398 c 128,-1,99
 117 406 117 406 117 417 c 0,100,101
 117 435 117 435 118.5 451.5 c 128,-1,102
 120 468 120 468 122 486 c 2,103,-1
 123 489 l 2,104,105
 123 491 123 491 122.5 493.5 c 128,-1,106
 122 496 122 496 122 498 c 2,107,-1
 120 515 l 2,108,109
 119 518 119 518 119 524 c 0,110,111
 119 546 119 546 125 562 c 0,112,113
 127 565 127 565 128 567.5 c 128,-1,114
 129 570 129 570 130 573 c 0,115,116
 133 586 133 586 135 594.5 c 128,-1,117
 137 603 137 603 140 610 c 128,-1,118
 143 617 143 617 149 623.5 c 128,-1,119
 155 630 155 630 165 639 c 0,120,121
 171 645 171 645 176 650.5 c 128,-1,122
 181 656 181 656 189 658 c 256,123,124
 197 660 197 660 207 660 c 128,-1,125
 217 660 217 660 225 660 c 0,57,58
183 476 m 1,126,-1
 196 462 l 2,127,128
 199 459 199 459 201.5 453 c 128,-1,129
 204 447 204 447 207 445 c 0,130,131
 219 436 219 436 229.5 432 c 128,-1,132
 240 428 240 428 251 426.5 c 128,-1,133
 262 425 262 425 273.5 425 c 128,-1,134
 285 425 285 425 299 424 c 1,135,136
 306 429 306 429 313.5 437 c 128,-1,137
 321 445 321 445 321 454 c 0,138,139
 321 462 321 462 317.5 468.5 c 128,-1,140
 314 475 314 475 309.5 481.5 c 128,-1,141
 305 488 305 488 301.5 495 c 128,-1,142
 298 502 298 502 297 511 c 0,143,144
 297 514 297 514 291.5 520 c 128,-1,145
 286 526 286 526 279 533.5 c 128,-1,146
 272 541 272 541 265 549.5 c 128,-1,147
 258 558 258 558 255 565 c 1,148,149
 243 555 243 555 232 555 c 0,150,151
 228 555 228 555 225.5 557.5 c 128,-1,152
 223 560 223 560 219.5 562.5 c 128,-1,153
 216 565 216 565 209.5 567.5 c 128,-1,154
 203 570 203 570 189 570 c 1,155,-1
 186 569 l 1,156,157
 187 561 187 561 188 554.5 c 128,-1,158
 189 548 189 548 189 540 c 0,159,160
 189 531 189 531 187.5 522 c 128,-1,161
 186 513 186 513 184 503 c 0,162,163
 183 496 183 496 183 489.5 c 128,-1,164
 183 483 183 483 183 476 c 1,126,-1
670 427 m 0,165,166
 680 427 680 427 690 427 c 128,-1,167
 700 427 700 427 710 426 c 0,168,169
 717 425 717 425 727.5 421.5 c 128,-1,170
 738 418 738 418 748 413 c 128,-1,171
 758 408 758 408 765 400.5 c 128,-1,172
 772 393 772 393 772 384 c 0,173,174
 772 373 772 373 766 358.5 c 128,-1,175
 760 344 760 344 751 332 c 1,176,177
 756 318 756 318 760 306.5 c 128,-1,178
 764 295 764 295 764 276 c 0,179,180
 764 259 764 259 762 239.5 c 128,-1,181
 760 220 760 220 753.5 202.5 c 128,-1,182
 747 185 747 185 735.5 171 c 128,-1,183
 724 157 724 157 705 150 c 1,184,185
 698 142 698 142 679 127.5 c 128,-1,186
 660 113 660 113 638.5 98 c 128,-1,187
 617 83 617 83 596.5 71 c 128,-1,188
 576 59 576 59 565 56 c 0,189,190
 560 54 560 54 554 53.5 c 128,-1,191
 548 53 548 53 542 53 c 0,192,193
 530 53 530 53 518 57 c 128,-1,194
 506 61 506 61 494 63 c 0,195,196
 483 65 483 65 473 66.5 c 128,-1,197
 463 68 463 68 456 79 c 0,198,199
 451 89 451 89 451 96 c 0,200,201
 451 105 451 105 455 126 c 128,-1,202
 459 147 459 147 465 169.5 c 128,-1,203
 471 192 471 192 477 213 c 128,-1,204
 483 234 483 234 487 243 c 0,205,206
 488 246 488 246 492 254.5 c 128,-1,207
 496 263 496 263 500.5 272 c 128,-1,208
 505 281 505 281 508.5 288 c 128,-1,209
 512 295 512 295 512 296 c 0,210,211
 512 316 512 316 520 328.5 c 128,-1,212
 528 341 528 341 539 355 c 0,213,214
 542 360 542 360 544 364.5 c 128,-1,215
 546 369 546 369 549 373 c 0,216,217
 560 392 560 392 572.5 402.5 c 128,-1,218
 585 413 585 413 600 418.5 c 128,-1,219
 615 424 615 424 632 425.5 c 128,-1,220
 649 427 649 427 670 427 c 0,165,166
519 155 m 1,221,222
 534 153 534 153 551 148 c 128,-1,223
 568 143 568 143 579 143 c 0,224,225
 586 143 586 143 600.5 150.5 c 128,-1,226
 615 158 615 158 630.5 168 c 128,-1,227
 646 178 646 178 660 188.5 c 128,-1,228
 674 199 674 199 680 204 c 0,229,230
 685 209 685 209 689 214.5 c 128,-1,231
 693 220 693 220 698 225 c 1,232,-1
 698 226 l 2,233,234
 698 247 698 247 688.5 266 c 128,-1,235
 679 285 679 285 679 307 c 0,236,237
 679 318 679 318 685 331 c 1,238,239
 674 336 674 336 663 336.5 c 128,-1,240
 652 337 652 337 634 337 c 0,241,242
 611 337 611 337 587 334 c 1,243,244
 585 327 585 327 581 321.5 c 128,-1,245
 577 316 577 316 573 309 c 0,246,247
 571 304 571 304 569 299 c 128,-1,248
 567 294 567 294 565 289 c 0,249,250
 560 278 560 278 554 267 c 128,-1,251
 548 256 548 256 543 245 c 0,252,253
 535 223 535 223 530 200.5 c 128,-1,254
 525 178 525 178 519 155 c 1,221,222
EndSplineSet
Validated: 1
EndChar
